<?xml version="1.0" encoding="UTF-8"?>
<svg width="100px" height="94px" viewBox="0 0 100 94" version="1.1" xmlns="http://www.w3.org/2000/svg" xmlns:xlink="http://www.w3.org/1999/xlink">
    <!-- Generator: Sketch 42 (36781) - http://www.bohemiancoding.com/sketch -->
    <title>svg/Calendar2</title>
    <desc>Created with Sketch.</desc>
    <defs></defs>
    <g id="Symbols" stroke="none" stroke-width="1" fill="none" fill-rule="evenodd">
        <g id="Calendar" transform="translate(0.000000, 1.000000)" fill="#5B5B5B">
            <g id="svg/Calendar2">
                <path d="M91.3043478,93 L8.69565217,93 C3.89347826,93 0,89.0880789 0,84.2631579 L0,18.7368421 C0,13.9119211 3.89347826,10 8.69565217,10 L91.3043478,10 C96.1065217,10 100,13.9119211 100,18.7368421 L100,84.2631579 C100,89.0880789 96.1065217,93 91.3043478,93 Z M97,18.9025837 C97,15.6447648 93.6371401,13 91.166283,13 L8.85208343,13 C5.67006688,13 3,16.0352746 3,18.9025837 C3,21.7698928 3,34 3,34 L97,34 L97,18.9025837 Z M97,37 L3,37 L3,83.4746107 C3,86.8175038 5.82047202,90 9.85228548,90 C9.85228548,90 87.2146658,90 90.4500113,90 C93.6853568,90 97,87.8822625 97,84.3083449 L97,37 Z M86.9565217,66.7894737 L82.6086957,66.7894737 C81.4086957,66.7894737 80.4347826,65.8131316 80.4347826,64.6052632 L80.4347826,60.2368421 C80.4347826,59.0311579 81.4086957,58.0526316 82.6086957,58.0526316 L86.9565217,58.0526316 C88.1586957,58.0526316 89.1304348,59.0311579 89.1304348,60.2368421 L89.1304348,64.6052632 C89.1304348,65.8131316 88.1586957,66.7894737 86.9565217,66.7894737 Z M86.9565217,51.5 L82.6086957,51.5 C81.4086957,51.5 80.4347826,50.5236579 80.4347826,49.3157895 L80.4347826,44.9473684 C80.4347826,43.7395 81.4086957,42.7631579 82.6086957,42.7631579 L86.9565217,42.7631579 C88.1586957,42.7631579 89.1304348,43.7395 89.1304348,44.9473684 L89.1304348,49.3157895 C89.1304348,50.5236579 88.1586957,51.5 86.9565217,51.5 Z M69.5652174,66.7894737 L65.2173913,66.7894737 C64.0173913,66.7894737 63.0434783,65.8131316 63.0434783,64.6052632 L63.0434783,60.2368421 C63.0434783,59.0311579 64.0173913,58.0526316 65.2173913,58.0526316 L69.5652174,58.0526316 C70.7673913,58.0526316 71.7391304,59.0311579 71.7391304,60.2368421 L71.7391304,64.6052632 C71.7391304,65.8131316 70.7673913,66.7894737 69.5652174,66.7894737 Z M69.5652174,51.5 L65.2173913,51.5 C64.0173913,51.5 63.0434783,50.5236579 63.0434783,49.3157895 L63.0434783,44.9473684 C63.0434783,43.7395 64.0173913,42.7631579 65.2173913,42.7631579 L69.5652174,42.7631579 C70.7673913,42.7631579 71.7391304,43.7395 71.7391304,44.9473684 L71.7391304,49.3157895 C71.7391304,50.5236579 70.7673913,51.5 69.5652174,51.5 Z M52.173913,66.7894737 L47.826087,66.7894737 C46.623913,66.7894737 45.6521739,65.8131316 45.6521739,64.6052632 L45.6521739,60.2368421 C45.6521739,59.0311579 46.623913,58.0526316 47.826087,58.0526316 L52.173913,58.0526316 C53.376087,58.0526316 54.3478261,59.0311579 54.3478261,60.2368421 L54.3478261,64.6052632 C54.3478261,65.8131316 53.376087,66.7894737 52.173913,66.7894737 Z M52.173913,51.5 L47.826087,51.5 C46.623913,51.5 45.6521739,50.5236579 45.6521739,49.3157895 L45.6521739,44.9473684 C45.6521739,43.7395 46.623913,42.7631579 47.826087,42.7631579 L52.173913,42.7631579 C53.376087,42.7631579 54.3478261,43.7395 54.3478261,44.9473684 L54.3478261,49.3157895 C54.3478261,50.5236579 53.376087,51.5 52.173913,51.5 Z M34.7826087,82.0789474 L30.4347826,82.0789474 C29.2326087,82.0789474 28.2608696,81.1026053 28.2608696,79.8947368 L28.2608696,75.5263158 C28.2608696,74.3184474 29.2326087,73.3421053 30.4347826,73.3421053 L34.7826087,73.3421053 C35.9847826,73.3421053 36.9565217,74.3184474 36.9565217,75.5263158 L36.9565217,79.8947368 C36.9565217,81.1026053 35.9847826,82.0789474 34.7826087,82.0789474 Z M34.7826087,66.7894737 L30.4347826,66.7894737 C29.2326087,66.7894737 28.2608696,65.8131316 28.2608696,64.6052632 L28.2608696,60.2368421 C28.2608696,59.0311579 29.2326087,58.0526316 30.4347826,58.0526316 L34.7826087,58.0526316 C35.9847826,58.0526316 36.9565217,59.0311579 36.9565217,60.2368421 L36.9565217,64.6052632 C36.9565217,65.8131316 35.9847826,66.7894737 34.7826087,66.7894737 Z M34.7826087,51.5 L30.4347826,51.5 C29.2326087,51.5 28.2608696,50.5236579 28.2608696,49.3157895 L28.2608696,44.9473684 C28.2608696,43.7395 29.2326087,42.7631579 30.4347826,42.7631579 L34.7826087,42.7631579 C35.9847826,42.7631579 36.9565217,43.7395 36.9565217,44.9473684 L36.9565217,49.3157895 C36.9565217,50.5236579 35.9847826,51.5 34.7826087,51.5 Z M17.3913043,82.0789474 L13.0434783,82.0789474 C11.8413043,82.0789474 10.8695652,81.1026053 10.8695652,79.8947368 L10.8695652,75.5263158 C10.8695652,74.3184474 11.8413043,73.3421053 13.0434783,73.3421053 L17.3913043,73.3421053 C18.5934783,73.3421053 19.5652174,74.3184474 19.5652174,75.5263158 L19.5652174,79.8947368 C19.5652174,81.1026053 18.5934783,82.0789474 17.3913043,82.0789474 Z M17.3913043,66.7894737 L13.0434783,66.7894737 C11.8413043,66.7894737 10.8695652,65.8131316 10.8695652,64.6052632 L10.8695652,60.2368421 C10.8695652,59.0311579 11.8413043,58.0526316 13.0434783,58.0526316 L17.3913043,58.0526316 C18.5934783,58.0526316 19.5652174,59.0311579 19.5652174,60.2368421 L19.5652174,64.6052632 C19.5652174,65.8131316 18.5934783,66.7894737 17.3913043,66.7894737 Z M47.826087,73.3421053 L52.173913,73.3421053 C53.376087,73.3421053 54.3478261,74.3184474 54.3478261,75.5263158 L54.3478261,79.8947368 C54.3478261,81.1026053 53.376087,82.0789474 52.173913,82.0789474 L47.826087,82.0789474 C46.623913,82.0789474 45.6521739,81.1026053 45.6521739,79.8947368 L45.6521739,75.5263158 C45.6521739,74.3184474 46.623913,73.3421053 47.826087,73.3421053 Z" id="Shape" fill-rule="nonzero"></path>
                <g id="Group" transform="translate(18.000000, 0.000000)" stroke="#FFFFFF" stroke-width="2">
                    <rect id="Rectangle-2" x="0" y="0" width="5" height="25" rx="2.5"></rect>
                    <rect id="Rectangle-2-Copy" x="59" y="0" width="5" height="25" rx="2.5"></rect>
                </g>
            </g>
        </g>
    </g>
</svg>