<?xml version="1.0" encoding="UTF-8"?>
<svg width="83px" height="100px" viewBox="0 0 83 100" version="1.1" xmlns="http://www.w3.org/2000/svg" xmlns:xlink="http://www.w3.org/1999/xlink">
    <!-- Generator: Sketch 42 (36781) - http://www.bohemiancoding.com/sketch -->
    <title>svg/computer</title>
    <desc>Created with Sketch.</desc>
    <defs>
        <rect id="path-1" x="8.85478158" y="7.37898465" width="64.9350649" height="14.7579693" rx="3"></rect>
        <mask id="mask-2" maskContentUnits="userSpaceOnUse" maskUnits="objectBoundingBox" x="0" y="0" width="64.9350649" height="14.7579693" fill="white">
            <use xlink:href="#path-1"></use>
        </mask>
    </defs>
    <g id="Symbols" stroke="none" stroke-width="1" fill="none" fill-rule="evenodd">
        <g id="computer">
            <g id="svg/computer">
                <path d="M80.4309327,92.6431523 C80.4309327,95.267193 78.6762593,97.4025974 76.5200708,97.4025974 L6.12455726,97.4025974 C3.96836875,97.4025974 2.2136954,95.267193 2.2136954,92.6431523 L2.2136954,6.9731405 C2.2136954,4.34909976 3.96836875,2.2136954 6.12455726,2.2136954 L76.5200708,2.2136954 C78.6762593,2.2136954 80.4309327,4.34909976 80.4309327,6.9731405 L80.4309327,92.6431523 Z M6.45661157,0 C2.89127066,0 0,3.48501374 0,7.78252287 L0,91.8337699 C0,96.1312791 2.89127066,99.6162928 6.45661157,99.6162928 L76.1880165,99.6162928 C79.7533574,99.6162928 82.6446281,96.1312791 82.6446281,91.8337699 L82.6446281,7.78252287 C82.6446281,3.48501374 79.7533574,0 76.1880165,0 L6.45661157,0 Z M72.3140496,89.3779516 C72.3140496,90.1416765 71.6942149,90.7615112 70.93049,90.7615112 L62.6291322,90.7615112 C61.8654073,90.7615112 61.2455726,90.1416765 61.2455726,89.3779516 L61.2455726,81.0765939 C61.2455726,80.3128689 61.8654073,79.6930342 62.6291322,79.6930342 L70.93049,79.6930342 C71.6942149,79.6930342 72.3140496,80.3128689 72.3140496,81.0765939 L72.3140496,89.3779516 Z M62.5737898,78.2172373 C61.027376,78.2172373 59.7697757,79.4748377 59.7697757,81.0212515 L59.7697757,89.433294 C59.7697757,90.9797078 61.027376,92.2373081 62.5737898,92.2373081 L70.9858323,92.2373081 C72.5322462,92.2373081 73.7898465,90.9797078 73.7898465,89.433294 L73.7898465,81.0212515 C73.7898465,79.4748377 72.5322462,78.2172373 70.9858323,78.2172373 L62.5737898,78.2172373 Z M55.3423849,89.3779516 C55.3423849,90.1416765 54.7225502,90.7615112 53.9588253,90.7615112 L45.6574675,90.7615112 C44.8937426,90.7615112 44.2739079,90.1416765 44.2739079,89.3779516 L44.2739079,81.0765939 C44.2739079,80.3128689 44.8937426,79.6930342 45.6574675,79.6930342 L53.9588253,79.6930342 C54.7225502,79.6930342 55.3423849,80.3128689 55.3423849,81.0765939 L55.3423849,89.3779516 Z M45.6021251,78.2172373 C44.0557113,78.2172373 42.798111,79.4748377 42.798111,81.0212515 L42.798111,89.433294 C42.798111,90.9797078 44.0557113,92.2373081 45.6021251,92.2373081 L54.0141677,92.2373081 C55.5605815,92.2373081 56.8181818,90.9797078 56.8181818,89.433294 L56.8181818,81.0212515 C56.8181818,79.4748377 55.5605815,78.2172373 54.0141677,78.2172373 L45.6021251,78.2172373 Z M38.3707202,89.3779516 C38.3707202,90.1416765 37.7508855,90.7615112 36.9871606,90.7615112 L28.6858028,90.7615112 C27.9220779,90.7615112 27.3022432,90.1416765 27.3022432,89.3779516 L27.3022432,81.0765939 C27.3022432,80.3128689 27.9220779,79.6930342 28.6858028,79.6930342 L36.9871606,79.6930342 C37.7508855,79.6930342 38.3707202,80.3128689 38.3707202,81.0765939 L38.3707202,89.3779516 Z M28.6304604,78.2172373 C27.0840466,78.2172373 25.8264463,79.4748377 25.8264463,81.0212515 L25.8264463,89.433294 C25.8264463,90.9797078 27.0840466,92.2373081 28.6304604,92.2373081 L37.042503,92.2373081 C38.5889168,92.2373081 39.8465171,90.9797078 39.8465171,89.433294 L39.8465171,81.0212515 C39.8465171,79.4748377 38.5889168,78.2172373 37.042503,78.2172373 L28.6304604,78.2172373 Z M21.3990555,89.3779516 C21.3990555,90.1416765 20.7792208,90.7615112 20.0154959,90.7615112 L11.7141381,90.7615112 C10.9504132,90.7615112 10.3305785,90.1416765 10.3305785,89.3779516 L10.3305785,81.0765939 C10.3305785,80.3128689 10.9504132,79.6930342 11.7141381,79.6930342 L20.0154959,79.6930342 C20.7792208,79.6930342 21.3990555,80.3128689 21.3990555,81.0765939 L21.3990555,89.3779516 Z M11.6587957,78.2172373 C10.1123819,78.2172373 8.85478158,79.4748377 8.85478158,81.0212515 L8.85478158,89.433294 C8.85478158,90.9797078 10.1123819,92.2373081 11.6587957,92.2373081 L20.0708383,92.2373081 C21.6172521,92.2373081 22.8748524,90.9797078 22.8748524,89.433294 L22.8748524,81.0212515 C22.8748524,79.4748377 21.6172521,78.2172373 20.0708383,78.2172373 L11.6587957,78.2172373 Z M72.3140496,72.4062869 C72.3140496,73.1700118 71.6942149,73.7898465 70.93049,73.7898465 L62.6291322,73.7898465 C61.8654073,73.7898465 61.2455726,73.1700118 61.2455726,72.4062869 L61.2455726,64.1049292 C61.2455726,63.3412043 61.8654073,62.7213695 62.6291322,62.7213695 L70.93049,62.7213695 C71.6942149,62.7213695 72.3140496,63.3412043 72.3140496,64.1049292 L72.3140496,72.4062869 Z M62.5737898,61.2455726 C61.027376,61.2455726 59.7697757,62.503173 59.7697757,64.0495868 L59.7697757,72.4616293 C59.7697757,74.0080431 61.027376,75.2656434 62.5737898,75.2656434 L70.9858323,75.2656434 C72.5322462,75.2656434 73.7898465,74.0080431 73.7898465,72.4616293 L73.7898465,64.0495868 C73.7898465,62.503173 72.5322462,61.2455726 70.9858323,61.2455726 L62.5737898,61.2455726 Z M55.3423849,72.4062869 C55.3423849,73.1700118 54.7225502,73.7898465 53.9588253,73.7898465 L45.6574675,73.7898465 C44.8937426,73.7898465 44.2739079,73.1700118 44.2739079,72.4062869 L44.2739079,64.1049292 C44.2739079,63.3412043 44.8937426,62.7213695 45.6574675,62.7213695 L53.9588253,62.7213695 C54.7225502,62.7213695 55.3423849,63.3412043 55.3423849,64.1049292 L55.3423849,72.4062869 Z M45.6021251,61.2455726 C44.0557113,61.2455726 42.798111,62.503173 42.798111,64.0495868 L42.798111,72.4616293 C42.798111,74.0080431 44.0557113,75.2656434 45.6021251,75.2656434 L54.0141677,75.2656434 C55.5605815,75.2656434 56.8181818,74.0080431 56.8181818,72.4616293 L56.8181818,64.0495868 C56.8181818,62.503173 55.5605815,61.2455726 54.0141677,61.2455726 L45.6021251,61.2455726 Z M38.3707202,72.4062869 C38.3707202,73.1700118 37.7508855,73.7898465 36.9871606,73.7898465 L28.6858028,73.7898465 C27.9220779,73.7898465 27.3022432,73.1700118 27.3022432,72.4062869 L27.3022432,64.1049292 C27.3022432,63.3412043 27.9220779,62.7213695 28.6858028,62.7213695 L36.9871606,62.7213695 C37.7508855,62.7213695 38.3707202,63.3412043 38.3707202,64.1049292 L38.3707202,72.4062869 Z M28.6304604,61.2455726 C27.0840466,61.2455726 25.8264463,62.503173 25.8264463,64.0495868 L25.8264463,72.4616293 C25.8264463,74.0080431 27.0840466,75.2656434 28.6304604,75.2656434 L37.042503,75.2656434 C38.5889168,75.2656434 39.8465171,74.0080431 39.8465171,72.4616293 L39.8465171,64.0495868 C39.8465171,62.503173 38.5889168,61.2455726 37.042503,61.2455726 L28.6304604,61.2455726 Z M21.3990555,72.4062869 C21.3990555,73.1700118 20.7792208,73.7898465 20.0154959,73.7898465 L11.7141381,73.7898465 C10.9504132,73.7898465 10.3305785,73.1700118 10.3305785,72.4062869 L10.3305785,64.1049292 C10.3305785,63.3412043 10.9504132,62.7213695 11.7141381,62.7213695 L20.0154959,62.7213695 C20.7792208,62.7213695 21.3990555,63.3412043 21.3990555,64.1049292 L21.3990555,72.4062869 Z M11.6587957,61.2455726 C10.1123819,61.2455726 8.85478158,62.503173 8.85478158,64.0495868 L8.85478158,72.4616293 C8.85478158,74.0080431 10.1123819,75.2656434 11.6587957,75.2656434 L20.0708383,75.2656434 C21.6172521,75.2656434 22.8748524,74.0080431 22.8748524,72.4616293 L22.8748524,64.0495868 C22.8748524,62.503173 21.6172521,61.2455726 20.0708383,61.2455726 L11.6587957,61.2455726 Z M72.3140496,55.4346222 C72.3140496,56.1983471 71.6942149,56.8181818 70.93049,56.8181818 L62.6291322,56.8181818 C61.8654073,56.8181818 61.2455726,56.1983471 61.2455726,55.4346222 L61.2455726,47.1332645 C61.2455726,46.3695396 61.8654073,45.7497048 62.6291322,45.7497048 L70.93049,45.7497048 C71.6942149,45.7497048 72.3140496,46.3695396 72.3140496,47.1332645 L72.3140496,55.4346222 Z M62.5737898,44.2739079 C61.027376,44.2739079 59.7697757,45.5315083 59.7697757,47.0779221 L59.7697757,55.4899646 C59.7697757,57.0363784 61.027376,58.2939787 62.5737898,58.2939787 L70.9858323,58.2939787 C72.5322462,58.2939787 73.7898465,57.0363784 73.7898465,55.4899646 L73.7898465,47.0779221 C73.7898465,45.5315083 72.5322462,44.2739079 70.9858323,44.2739079 L62.5737898,44.2739079 Z M55.3423849,55.4346222 C55.3423849,56.1983471 54.7225502,56.8181818 53.9588253,56.8181818 L45.6574675,56.8181818 C44.8937426,56.8181818 44.2739079,56.1983471 44.2739079,55.4346222 L44.2739079,47.1332645 C44.2739079,46.3695396 44.8937426,45.7497048 45.6574675,45.7497048 L53.9588253,45.7497048 C54.7225502,45.7497048 55.3423849,46.3695396 55.3423849,47.1332645 L55.3423849,55.4346222 Z M45.6021251,44.2739079 C44.0557113,44.2739079 42.798111,45.5315083 42.798111,47.0779221 L42.798111,55.4899646 C42.798111,57.0363784 44.0557113,58.2939787 45.6021251,58.2939787 L54.0141677,58.2939787 C55.5605815,58.2939787 56.8181818,57.0363784 56.8181818,55.4899646 L56.8181818,47.0779221 C56.8181818,45.5315083 55.5605815,44.2739079 54.0141677,44.2739079 L45.6021251,44.2739079 Z M38.3707202,55.4346222 C38.3707202,56.1983471 37.7508855,56.8181818 36.9871606,56.8181818 L28.6858028,56.8181818 C27.9220779,56.8181818 27.3022432,56.1983471 27.3022432,55.4346222 L27.3022432,47.1332645 C27.3022432,46.3695396 27.9220779,45.7497048 28.6858028,45.7497048 L36.9871606,45.7497048 C37.7508855,45.7497048 38.3707202,46.3695396 38.3707202,47.1332645 L38.3707202,55.4346222 Z M28.6304604,44.2739079 C27.0840466,44.2739079 25.8264463,45.5315083 25.8264463,47.0779221 L25.8264463,55.4899646 C25.8264463,57.0363784 27.0840466,58.2939787 28.6304604,58.2939787 L37.042503,58.2939787 C38.5889168,58.2939787 39.8465171,57.0363784 39.8465171,55.4899646 L39.8465171,47.0779221 C39.8465171,45.5315083 38.5889168,44.2739079 37.042503,44.2739079 L28.6304604,44.2739079 Z M21.3990555,55.4346222 C21.3990555,56.1983471 20.7792208,56.8181818 20.0154959,56.8181818 L11.7141381,56.8181818 C10.9504132,56.8181818 10.3305785,56.1983471 10.3305785,55.4346222 L10.3305785,47.1332645 C10.3305785,46.3695396 10.9504132,45.7497048 11.7141381,45.7497048 L20.0154959,45.7497048 C20.7792208,45.7497048 21.3990555,46.3695396 21.3990555,47.1332645 L21.3990555,55.4346222 Z M11.6587957,44.2739079 C10.1123819,44.2739079 8.85478158,45.5315083 8.85478158,47.0779221 L8.85478158,55.4899646 C8.85478158,57.0363784 10.1123819,58.2939787 11.6587957,58.2939787 L20.0708383,58.2939787 C21.6172521,58.2939787 22.8748524,57.0363784 22.8748524,55.4899646 L22.8748524,47.0779221 C22.8748524,45.5315083 21.6172521,44.2739079 20.0708383,44.2739079 L11.6587957,44.2739079 Z M72.3140496,38.4629575 C72.3140496,39.2266824 71.6942149,39.8465171 70.93049,39.8465171 L62.6291322,39.8465171 C61.8654073,39.8465171 61.2455726,39.2266824 61.2455726,38.4629575 L61.2455726,30.1615998 C61.2455726,29.3978749 61.8654073,28.7780401 62.6291322,28.7780401 L70.93049,28.7780401 C71.6942149,28.7780401 72.3140496,29.3978749 72.3140496,30.1615998 L72.3140496,38.4629575 Z M62.5737898,27.3022432 C61.027376,27.3022432 59.7697757,28.5598436 59.7697757,30.1062574 L59.7697757,38.5182999 C59.7697757,40.0647137 61.027376,41.322314 62.5737898,41.322314 L70.9858323,41.322314 C72.5322462,41.322314 73.7898465,40.0647137 73.7898465,38.5182999 L73.7898465,30.1062574 C73.7898465,28.5598436 72.5322462,27.3022432 70.9858323,27.3022432 L62.5737898,27.3022432 Z M55.3423849,38.4629575 C55.3423849,39.2266824 54.7225502,39.8465171 53.9588253,39.8465171 L45.6574675,39.8465171 C44.8937426,39.8465171 44.2739079,39.2266824 44.2739079,38.4629575 L44.2739079,30.1615998 C44.2739079,29.3978749 44.8937426,28.7780401 45.6574675,28.7780401 L53.9588253,28.7780401 C54.7225502,28.7780401 55.3423849,29.3978749 55.3423849,30.1615998 L55.3423849,38.4629575 Z M45.6021251,27.3022432 C44.0557113,27.3022432 42.798111,28.5598436 42.798111,30.1062574 L42.798111,38.5182999 C42.798111,40.0647137 44.0557113,41.322314 45.6021251,41.322314 L54.0141677,41.322314 C55.5605815,41.322314 56.8181818,40.0647137 56.8181818,38.5182999 L56.8181818,30.1062574 C56.8181818,28.5598436 55.5605815,27.3022432 54.0141677,27.3022432 L45.6021251,27.3022432 Z M38.3707202,38.4629575 C38.3707202,39.2266824 37.7508855,39.8465171 36.9871606,39.8465171 L28.6858028,39.8465171 C27.9220779,39.8465171 27.3022432,39.2266824 27.3022432,38.4629575 L27.3022432,30.1615998 C27.3022432,29.3978749 27.9220779,28.7780401 28.6858028,28.7780401 L36.9871606,28.7780401 C37.7508855,28.7780401 38.3707202,29.3978749 38.3707202,30.1615998 L38.3707202,38.4629575 Z M28.6304604,27.3022432 C27.0840466,27.3022432 25.8264463,28.5598436 25.8264463,30.1062574 L25.8264463,38.5182999 C25.8264463,40.0647137 27.0840466,41.322314 28.6304604,41.322314 L37.042503,41.322314 C38.5889168,41.322314 39.8465171,40.0647137 39.8465171,38.5182999 L39.8465171,30.1062574 C39.8465171,28.5598436 38.5889168,27.3022432 37.042503,27.3022432 L28.6304604,27.3022432 Z M21.3990555,38.4629575 C21.3990555,39.2266824 20.7792208,39.8465171 20.0154959,39.8465171 L11.7141381,39.8465171 C10.9504132,39.8465171 10.3305785,39.2266824 10.3305785,38.4629575 L10.3305785,30.1615998 C10.3305785,29.3978749 10.9504132,28.7780401 11.7141381,28.7780401 L20.0154959,28.7780401 C20.7792208,28.7780401 21.3990555,29.3978749 21.3990555,30.1615998 L21.3990555,38.4629575 Z M11.6587957,27.3022432 C10.1123819,27.3022432 8.85478158,28.5598436 8.85478158,30.1062574 L8.85478158,38.5182999 C8.85478158,40.0647137 10.1123819,41.322314 11.6587957,41.322314 L20.0708383,41.322314 C21.6172521,41.322314 22.8748524,40.0647137 22.8748524,38.5182999 L22.8748524,30.1062574 C22.8748524,28.5598436 21.6172521,27.3022432 20.0708383,27.3022432 L11.6587957,27.3022432 Z" id="Sampler" fill="#9B9B9B"></path>
                <use id="Rectangle-5" stroke="#9B9B9B" mask="url(#mask-2)" stroke-width="4" xlink:href="#path-1"></use>
            </g>
        </g>
    </g>
</svg>