<?xml version="1.0" encoding="UTF-8"?>
<svg width="94px" height="88px" viewBox="0 0 94 88" version="1.1" xmlns="http://www.w3.org/2000/svg" xmlns:xlink="http://www.w3.org/1999/xlink">
    <!-- Generator: Sketch 42 (36781) - http://www.bohemiancoding.com/sketch -->
    <title>svg/event</title>
    <desc>Created with Sketch.</desc>
    <defs></defs>
    <g id="乘客首頁" stroke="none" stroke-width="1" fill="none" fill-rule="evenodd">
        <g id="USER06-最新活動／消息" transform="translate(-248.000000, -160.000000)">
            <g id="活動內容" transform="translate(243.000000, 160.000000)">
                <g id="最新活動" transform="translate(5.000000, 0.000000)">
                    <g id="svg/event">
                        <path d="M83.8525441,75.2523364 L88.0591257,75.2523364 L88.0591257,78.2900413 C88.0591257,83.0654206 83.8525441,87.5945464 78.5089997,87.5945464 L76.0427484,87.5945464 L38.0232458,87.5945464 L11.5095918,87.5945464 C6.37906893,87.5945464 0.0701432502,84.4034931 0.130056217,76.628696 C0.132567673,76.3027889 0.0701432502,75.9835577 0.0701432502,75.6654991 L0.0701432502,9.04881466 C0.0701432502,5.41422046 3.0121412,0.391027643 8.21709443,0.391027643 L66.5925283,0.391027643 C72.8134024,0.391027643 73.7726541,3.42874396 73.7726541,9.04881466 L73.7726541,13.5700935 C73.7726541,14.2514167 72.613366,14.8037383 71.9323295,14.8037383 C71.251293,14.8037383 69.8389331,14.2514167 69.8389331,13.5700935 L69.8389331,9.04881466 C69.8389331,6.55228112 68.8605826,4.93457944 66.5925283,4.93457944 L8.21709443,4.93457944 C5.94706274,4.93457944 4.11041883,6.77658529 4.11041883,9.04881466 L4.11041883,75.6654991 C4.11041883,79.7528549 7.42314141,83.0654206 11.5095918,83.0654206 L38.0232458,83.0654206 L72.3125439,83.0654206 C71.0014008,81.6678595 69.8389331,79.7875641 69.8389331,77.7196262 L69.8389331,75.2523364 L73.1654552,75.2523364 L76.0427484,75.2523364 L77.275874,75.2523364 L72.3125439,75.6654991 L69.8389331,75.2523364 L69.8389331,65.4485981 C69.8389331,64.7672749 70.825554,64.2001178 71.5065905,64.2001178 C72.187627,64.2001178 73.1654552,64.7672749 73.1654552,65.4485981 L73.1654552,77.7196262 L70.6992039,75.2523364 L74.6041018,75.2523364 L83.8525441,75.2523364 Z M15.9079266,46.4672897 C15.9079266,45.7859665 16.4570114,45.2336449 17.1442635,45.2336449 L43.4445215,45.2336449 C44.1273315,45.2336449 44.6808584,45.7873528 44.6808584,46.4672897 C44.6808584,47.148613 44.1317736,47.7009346 43.4445215,47.7009346 L17.1442635,47.7009346 C16.4614535,47.7009346 15.9079266,47.1472266 15.9079266,46.4672897 L15.9079266,46.4672897 Z M15.9079266,58.8037383 C15.9079266,58.1224151 16.4595841,57.5700935 17.1387755,57.5700935 L51.6708472,57.5700935 C52.3506263,57.5700935 52.9016961,58.1238014 52.9016961,58.8037383 C52.9016961,59.4850616 52.3500386,60.0373832 51.6708472,60.0373832 L17.1387755,60.0373832 C16.4589964,60.0373832 15.9079266,59.4836752 15.9079266,58.8037383 L15.9079266,58.8037383 Z M15.9079266,34.1308411 C15.9079266,33.4495179 16.4570114,32.8971963 17.1442635,32.8971963 L43.4445215,32.8971963 C44.1273315,32.8971963 44.6808584,33.4509042 44.6808584,34.1308411 C44.6808584,34.8121644 44.1317736,35.364486 43.4445215,35.364486 L17.1442635,35.364486 C16.4614535,35.364486 15.9079266,34.810778 15.9079266,34.1308411 L15.9079266,34.1308411 Z M83.8525441,77.7196262 L73.1654552,77.7196262 C73.1654552,80.6720269 75.5578415,83.0654206 78.5089997,83.0654206 C81.4601578,83.0654206 83.8525441,80.6720269 83.8525441,77.7196262 L83.8525441,77.7196262 Z" id="Shape" fill="#878787" fill-rule="nonzero"></path>
                        <path d="M76.4265023,57.6579883 C86.3301637,56.2497426 93.950675,47.7303899 93.950675,37.4311212 C93.950675,26.1448435 84.8073299,17 73.5284422,17 L68.4222327,17 C57.1470665,17 48,26.1473245 48,37.4311212 C48,47.7305504 55.6142997,56.2466585 65.5172919,57.6571765 L67.2346255,59.3745101 C69.3016346,61.4415193 72.6422072,61.4422721 74.7021454,59.3823339 L76.426489,57.6579902 Z" id="Rectangle-20" fill="#5B5B5B"></path>
                        <text id="event" font-family="ComicSansMS, Comic Sans MS" font-size="12" font-weight="normal" fill="#FFFFFF">
                            <tspan x="56.0400391" y="42">event</tspan>
                        </text>
                    </g>
                </g>
            </g>
        </g>
    </g>
</svg>