<?xml version="1.0" encoding="UTF-8"?>
<svg width="83px" height="85px" viewBox="0 0 83 85" version="1.1" xmlns="http://www.w3.org/2000/svg" xmlns:xlink="http://www.w3.org/1999/xlink">
    <!-- Generator: Sketch 42 (36781) - http://www.bohemiancoding.com/sketch -->
    <title>Login</title>
    <desc>Created with Sketch.</desc>
    <defs></defs>
    <g id="Symbols" stroke="none" stroke-width="1" fill="none" fill-rule="evenodd">
        <g id="Login" fill="#5B5B5B">
            <g>
                <path d="M82.8616978,39.6476969 C82.9515044,39.430899 83,39.1979756 83,38.9578854 C83,38.7195869 82.9515044,38.4866636 82.8616978,38.2698657 C82.770095,38.0512761 82.6389774,37.8541871 82.4737332,37.6911407 L70.0678462,25.3157442 C69.3655585,24.6169742 68.2304027,24.6169742 67.5281149,25.3157442 C66.8258271,26.016306 66.8258271,27.1504635 67.5281149,27.8492335 L76.8680038,37.1661674 L36.857357,37.1661674 C35.8640957,37.1661674 35.0612245,37.968857 35.0612245,38.9578854 C35.0612245,39.9487055 35.8640957,40.7496035 36.857357,40.7496035 L76.8680038,40.7496035 L67.5281149,50.0665373 C66.8258271,50.7670991 66.8258271,51.9012566 67.5281149,52.6000266 C67.8783608,52.9512033 68.3381707,53.125 68.7979806,53.125 C69.2577905,53.125 69.7176004,52.9512033 70.0678462,52.6000266 L82.4737332,40.2264218 C82.6389774,40.0615837 82.770095,39.8662865 82.8616978,39.6476969" id="Fill-843" transform="translate(59.030612, 38.958333) scale(-1, 1) translate(-59.030612, -38.958333) "></path>
                <path d="M26.6326531,81.4583333 L3.55102041,67.2916667 L3.55102041,5.3125 L26.6326531,18.7478351 L26.6326531,77.9166667 L26.6326531,81.4583333 Z M56.7831197,48.2831671 L56.7831195,63.5266143 C56.7831195,64.6279911 55.8939642,65.5208333 54.7744761,65.5208333 L30.0591208,65.5208333 L30.0591208,17.7083333 C30.0591208,17.0674063 28.8351073,16.2526224 28.2741757,15.9375 L8.76881189,3.56070554 L54.7811339,3.56070554 C55.8868001,3.56070554 56.7831197,4.45543669 56.7831197,5.5634445 L56.7831197,28.2898055 C56.7831197,29.2725603 57.5841945,30.0701583 58.5752333,30.0701583 C59.56448,30.0701583 60.3673469,29.2725603 60.3673469,28.2898055 L60.3673469,3.56070533 C60.3673469,2.5779506 57.772365,0 56.7831183,0 L1.79211361,0 C0.801074783,0 -5.2058131e-14,0.797598041 -5.2058131e-14,1.78035277 L-1.10275877e-08,67.3011847 C-1.10275877e-08,68.1272684 1.02329692,70.6321535 1.79211365,70.8333333 L26.6326531,84.7673917 C26.9068464,84.920502 27.9623478,85.0095194 28.2670072,85.0095194 C28.5788349,85.0095194 28.8888706,84.9276232 29.1684403,84.7673915 C29.7186192,84.4487083 30.0591208,83.8629723 30.0591208,83.2291667 L30.0591208,69.0815361 L56.7831183,69.0815361 C57.772365,69.0815361 60.3673469,66.5053684 60.3673469,65.5208333 L60.3673469,48.2831671 C60.3673469,47.3004124 59.56448,46.5028144 58.5752333,46.5028144 C57.5841945,46.5028144 56.7831197,47.3004124 56.7831197,48.2831671 Z" id="Fill-844"></path>
            </g>
        </g>
    </g>
</svg>