<?xml version="1.0" encoding="UTF-8"?>
<svg width="60px" height="39px" viewBox="0 0 60 39" version="1.1" xmlns="http://www.w3.org/2000/svg" xmlns:xlink="http://www.w3.org/1999/xlink">
    <!-- Generator: Sketch 42 (36781) - http://www.bohemiancoding.com/sketch -->
    <title>svg/logo</title>
    <desc>Created with Sketch.</desc>
    <defs></defs>
    <g id="Symbols" stroke="none" stroke-width="1" fill="none" fill-rule="evenodd">
        <g id="nav" transform="translate(-60.000000, -31.000000)" fill="#0077C8">
            <g id="台灣代駕logo">
                <g transform="translate(60.000000, 28.000000)">
                    <g id="svg/logo" transform="translate(0.000000, 3.000000)">
                        <path d="M51.3662945,9.28147921 C51.3662945,9.28147921 48.1611492,1.9991616 39.081667,1.3331758 C44.2159275,3.60485202 46.1567352,8.01088549 46.1567352,8.01088549 C46.1567352,8.01088549 55.024947,9.71224779 54.7856849,21.0804126 C54.6025096,29.7931311 46.0178715,33.3360546 39.3653027,33.6354888 L39.3653027,33.6500929 L12.7447605,33.6471312 C12.3260415,33.6471312 11.9206264,33.6295859 11.5217391,33.6033191 C13.3045537,34.4255172 15.4507442,34.9191547 17.9543198,34.9191547 L44.5733333,34.9206049 L44.5733333,34.9060009 C51.2274927,34.6066484 59.8120689,31.0636635 59.9952442,22.3509246 C60.2345063,10.9835564 51.3662945,9.28147921 51.3662945,9.28147921" id="Fill-1"></path>
                        <path d="M5.43382048,22.5175302 C8.00376385,11.6275961 19.2022182,12.7168611 19.2022182,12.7168611 C19.2022182,12.7168611 21.5882725,1.82733543 37.0082013,1.28262122 C37.7186798,1.25782806 38.3951361,1.27385988 39.0434783,1.32132223 C37.1056819,0.464202009 34.7159919,-0.0907235479 31.8004355,0.0122681194 C16.3797218,0.556900636 13.9929445,11.446508 13.9929445,11.446508 C13.9929445,11.446508 2.79446944,10.3571613 0.22452607,21.2470954 C-1.02425446,26.5389637 2.96433234,33.0179013 11.4849722,33.5874291 C6.60061319,31.3313541 4.47601513,26.5754182 5.43382048,22.5175302" id="Fill-3"></path>
                        <path d="M14.383992,31.6951796 C14.2132204,31.6951796 14.0401948,31.6615415 13.8738694,31.5884578 C13.241779,31.3092104 12.9571873,30.5752043 13.2395869,29.9508851 L16.1878671,23.4110638 C16.389658,22.9636667 16.8384657,22.6756264 17.332996,22.6756264 L17.3389103,22.6756264 L25.5487653,22.7122091 L27.6904612,18.7803127 L19.8458894,18.7787995 C19.1531252,18.7787995 18.5920276,18.2232493 18.5920276,17.5390153 C18.5920276,16.8539839 19.153849,16.2991493 19.8466132,16.2991493 L29.7896814,16.299865 C30.231789,16.299865 30.6398788,16.5294426 30.8661335,16.9044513 C31.0923262,17.2794804 31.1026659,17.7436455 30.8941749,18.1281833 L27.3999759,24.5441263 C27.1811451,24.9462295 26.7567392,25.1962557 26.2962061,25.1962557 L26.2902298,25.1962557 L18.1454946,25.159673 L15.5306511,30.9597421 C15.3221601,31.42176 14.8645428,31.6951796 14.383992,31.6951796" id="Fill-5"></path>
                        <path d="M30.5576822,31.6951796 C30.387636,31.6951796 30.214612,31.660029 30.0475643,31.5869468 C29.415066,31.3077051 29.1312214,30.5752273 29.4136185,29.9494895 L32.361541,23.4112341 C32.5626062,22.9638462 33.0120716,22.6758117 33.5074038,22.6758117 L41.7223539,22.6758117 L44.8613122,16.9493325 C45.1910649,16.3469057 45.9524782,16.1225472 46.5601819,16.4493107 C47.1694159,16.7760742 47.3955859,17.5282846 47.0658538,18.1306296 L43.5720174,24.5062599 C43.3531887,24.9068212 42.9303169,25.1554109 42.4689815,25.1554109 L34.3205981,25.1554109 L31.7035244,30.9597572 C31.4965656,31.4217656 31.0382287,31.6951796 30.5576822,31.6951796" id="Fill-7"></path>
                        <path d="M48.6521739,12.8160467 C48.6521739,14.1453719 47.5630489,15.2240076 46.2173913,15.2240076 C44.873259,15.2240076 43.7826087,14.1453719 43.7826087,12.8160467 C43.7826087,11.4860081 44.873259,10.4073724 46.2173913,10.4073724 C47.5630489,10.4073724 48.6521739,11.4860081 48.6521739,12.8160467" id="Fill-9"></path>
                        <path d="M31.826087,12.8160467 C31.826087,14.1453719 30.7355289,15.2240076 29.3910982,15.2240076 C28.0470798,15.2240076 26.9565217,14.1453719 26.9565217,12.8160467 C26.9565217,11.4860081 28.0470798,10.4073724 29.3910982,10.4073724 C30.7355289,10.4073724 31.826087,11.4860081 31.826087,12.8160467" id="Fill-11"></path>
                        <path d="M12.2173913,33.8024575 C12.4415344,36.7060124 14.7981417,38.576087 17.6135133,38.576087 C20.4288023,38.576087 22.7264397,36.6068557 22.9130435,34.1173167 L12.2173913,33.8024575 Z" id="Fill-13"></path>
                        <path d="M38.826087,34.1465028 C39.0120809,36.6437579 41.3121867,38.6190926 44.1304245,38.6190926 C46.9486828,38.6190926 49.2487887,36.6437579 49.4347826,34.1465028 L38.826087,34.1465028 Z" id="Fill-15"></path>
                    </g>
                </g>
            </g>
        </g>
    </g>
</svg>