<?xml version="1.0" encoding="UTF-8"?>
<svg width="108px" height="100px" viewBox="0 0 108 100" version="1.1" xmlns="http://www.w3.org/2000/svg" xmlns:xlink="http://www.w3.org/1999/xlink">
    <!-- Generator: Sketch 42 (36781) - http://www.bohemiancoding.com/sketch -->
    <title>svg/news</title>
    <desc>Created with Sketch.</desc>
    <defs></defs>
    <g id="Symbols" stroke="none" stroke-width="1" fill="none" fill-rule="evenodd">
        <g id="news">
            <g id="svg/news">
                <path d="M95.3271028,85.5140187 L100.109322,85.5140187 L100.109322,88.9659561 C100.109322,94.3925234 95.3271028,99.5392572 89.2523364,99.5392572 L86.4485981,99.5392572 L43.2264268,99.5392572 L13.0845886,99.5392572 C7.25199416,99.5392572 0.0797418002,95.9130604 0.147853383,87.0780637 C0.150708512,86.7077147 0.0797418002,86.3449519 0.0797418002,85.9835217 L0.0797418002,10.2827439 C0.0797418002,6.15252325 3.42432894,0.444349594 9.34153893,0.444349594 L75.70519,0.444349594 C82.7773417,0.444349594 83.8678594,3.89629995 83.8678594,10.2827439 L83.8678594,15.4205607 C83.8678594,16.1947917 82.5499319,16.8224299 81.7757009,16.8224299 C81.00147,16.8224299 79.3958398,16.1947917 79.3958398,15.4205607 L79.3958398,10.2827439 C79.3958398,7.445774 78.2836097,5.60747664 75.70519,5.60747664 L9.34153893,5.60747664 C6.76087133,5.60747664 4.6728972,7.7006651 4.6728972,10.2827439 L4.6728972,85.9835217 C4.6728972,90.6282442 8.43893971,94.3925234 13.0845886,94.3925234 L43.2264268,94.3925234 L82.2079447,94.3925234 C80.7173819,92.8043858 79.3958398,90.6676865 79.3958398,88.317757 L79.3958398,85.5140187 L83.1775701,85.5140187 L86.4485981,85.5140187 L87.8504673,85.5140187 L82.2079447,85.9835217 L79.3958398,85.5140187 L79.3958398,68.6915888 C79.3958398,67.9173578 80.5174719,67.2728612 81.2917029,67.2728612 C82.0659338,67.2728612 83.1775701,67.9173578 83.1775701,68.6915888 L83.1775701,88.317757 L80.3738318,85.5140187 L84.8130841,85.5140187 L95.3271028,85.5140187 Z M21.4953271,52.8037383 C21.4953271,52.0295074 22.1195498,51.4018692 22.900847,51.4018692 L52.8000876,51.4018692 C53.5763348,51.4018692 54.2056075,52.0310828 54.2056075,52.8037383 C54.2056075,53.5779693 53.5813847,54.2056075 52.8000876,54.2056075 L22.900847,54.2056075 C22.1245998,54.2056075 21.4953271,53.5763939 21.4953271,52.8037383 L21.4953271,52.8037383 Z M21.4953271,66.8224299 C21.4953271,66.0481989 22.1224746,65.4205607 22.894608,65.4205607 L62.152121,65.4205607 C62.9249225,65.4205607 63.5514019,66.0497744 63.5514019,66.8224299 C63.5514019,67.5966609 62.9242544,68.2242991 62.152121,68.2242991 L22.894608,68.2242991 C22.1218065,68.2242991 21.4953271,67.5950855 21.4953271,66.8224299 L21.4953271,66.8224299 Z M21.4953271,38.7850467 C21.4953271,38.0108158 22.1195498,37.3831776 22.900847,37.3831776 L52.8000876,37.3831776 C53.5763348,37.3831776 54.2056075,38.0123912 54.2056075,38.7850467 C54.2056075,39.5592777 53.5813847,40.1869159 52.8000876,40.1869159 L22.900847,40.1869159 C22.1245998,40.1869159 21.4953271,39.5577023 21.4953271,38.7850467 L21.4953271,38.7850467 Z M95.3271028,88.317757 L83.1775701,88.317757 C83.1775701,91.6727578 85.8973356,94.3925234 89.2523364,94.3925234 C92.6073373,94.3925234 95.3271028,91.6727578 95.3271028,88.317757 L95.3271028,88.317757 Z" id="Shape" fill="#878787" fill-rule="nonzero"></path>
                <path d="M91.908615,59.6261017 C100.980213,58.3373953 107.943925,50.543581 107.943925,41.1214953 C107.943925,30.7961461 99.5755345,22.4299065 89.2526014,22.4299065 L84.5791743,22.4299065 C74.2470604,22.4299065 65.8878505,30.7984159 65.8878505,41.1214953 C65.8878505,50.5448671 72.8580483,58.3364579 81.9228962,59.6258267 L82.679426,60.3823564 C85.0222213,62.7251518 88.8126164,62.7220897 91.1523497,60.3823564 L91.9086028,59.6261034 Z" id="Rectangle-20" fill="#5B5B5B"></path>
                <text id="news" font-family="ComicSansMS, Comic Sans MS" font-size="14" font-weight="normal" fill="#FFFFFF">
                    <tspan x="71.5774148" y="45.7272727">news</tspan>
                </text>
            </g>
        </g>
    </g>
</svg>