<?xml version="1.0" encoding="UTF-8"?>
<svg width="111px" height="98px" viewBox="0 0 111 98" version="1.1" xmlns="http://www.w3.org/2000/svg" xmlns:xlink="http://www.w3.org/1999/xlink">
    <!-- Generator: Sketch 42 (36781) - http://www.bohemiancoding.com/sketch -->
    <title>svg/people</title>
    <desc>Created with Sketch.</desc>
    <defs>
        <path d="M0.824181427,62.962963 L63.5870098,62.962963 L63.5870098,56.5569679 C63.5870098,56.5569679 64.2648032,47.4899557 50.6838325,43.349651 L40.4981045,40.4930958 L22.4570862,40 C22.4570862,40 13.6290369,42.7587862 9.45767895,45.2221399 C9.45767895,45.2221399 0.727951506,48.5739164 0.62962963,57.4432652 L0.824181427,62.962963 L0.824181427,62.962963 Z" id="path-1"></path>
        <mask id="mask-2" maskContentUnits="userSpaceOnUse" maskUnits="objectBoundingBox" x="-3" y="-3" width="68.962963" height="28.962963">
            <rect x="-2.37037037" y="37" width="68.962963" height="28.962963" fill="white"></rect>
            <use xlink:href="#path-1" fill="black"></use>
        </mask>
    </defs>
    <g id="Symbols" stroke="none" stroke-width="1" fill="none" fill-rule="evenodd">
        <g id="people" transform="translate(2.000000, 1.000000)">
            <g id="svg/people">
                <g id="p3" transform="translate(55.000000, 12.000000)">
                    <polygon id="Fill-4" fill="#FFFFFF" points="20.1481481 25.3703704 20.1481481 33.3181605 27.016515 35 33.4814815 32.2475359 33.0780811 25.3703704"></polygon>
                    <polygon id="Stroke-6" stroke="#5B5B5B" stroke-width="3" points="20.1481481 25.3703704 20.1481481 33.3181605 27.016515 35 33.4814815 32.2475359 33.0780811 25.3703704"></polygon>
                    <path d="M27.7415961,27.5925926 L27.369515,27.5925926 C21.3606193,27.5925926 16.4444444,22.9130516 16.4444444,17.1933864 L16.4444444,8.68513006 C16.4444444,4.41878907 20.1117954,0.925925926 24.596014,0.925925926 L30.5150971,0.925925926 C34.9971773,0.925925926 38.6666667,4.41878907 38.6666667,8.68513006 L38.6666667,17.1933864 C38.6666667,22.9130516 33.7504918,27.5925926 27.7415961,27.5925926" id="Fill-8" fill="#FFFFFF"></path>
                    <path d="M27.7415961,27.5925926 L27.369515,27.5925926 C21.3606193,27.5925926 16.4444444,22.9130516 16.4444444,17.1933864 L16.4444444,8.68513006 C16.4444444,4.41878907 20.1117954,0.925925926 24.596014,0.925925926 L30.5150971,0.925925926 C34.9971773,0.925925926 38.6666667,4.41878907 38.6666667,8.68513006 L38.6666667,17.1933864 C38.6666667,22.9130516 33.7504918,27.5925926 27.7415961,27.5925926 L27.7415961,27.5925926 Z" id="Stroke-10" stroke="#5B5B5B" stroke-width="3"></path>
                    <path d="M1.04736838,52.7777778 L51.9954368,52.7777778 L51.9954368,47.6111236 C51.9954368,47.6111236 52.5470277,40.2984485 41.5213833,36.9599631 L33.2536936,34.656055 L18.607719,34.2592593 C18.607719,34.2592593 11.441153,36.4842237 8.05545486,38.4702798 C8.05545486,38.4702798 0.969157721,41.1730611 0.888888889,48.3257714 L1.04736838,52.7777778 Z" id="Fill-12" fill="#FFFFFF"></path>
                    <path d="M1.04736838,52.7777778 L51.9954368,52.7777778 L51.9954368,47.6111236 C51.9954368,47.6111236 52.5470277,40.2984485 41.5213833,36.9599631 L33.2536936,34.656055 L18.607719,34.2592593 C18.607719,34.2592593 11.441153,36.4842237 8.05545486,38.4702798 C8.05545486,38.4702798 0.969157721,41.1730611 0.888888889,48.3257714 L1.04736838,52.7777778 L1.04736838,52.7777778 Z" id="Stroke-14" stroke="#5B5B5B" stroke-width="3"></path>
                    <polygon id="Fill-16" fill="#FFFFFF" points="19.5925926 31.2962963 26.7072325 33.2253743 33.8036038 31.2962963 36.4444444 35.2364066 31.8630629 41.6666667 26.7072325 38.2098765 21.9228655 41.6666667 17.1851852 35.3162595"></polygon>
                    <path d="M26.7072325,33.2253743 C30.2563439,33.2253743 33.8036038,31.2962963 33.8036038,31.2962963 L36.4444444,35.2364066 L31.8630629,41.6666667 L26.7072325,38.2098765 L21.9228655,41.6666667 L17.1851852,35.3162595 L19.5925926,31.2962963 C19.5925926,31.2962963 23.1581212,33.2253743 26.7072325,33.2253743 Z" id="Stroke-18" stroke="#5B5B5B" stroke-width="2"></path>
                </g>
                <g id="p2">
                    <polygon id="Stroke-26" stroke="#5B5B5B" stroke-width="3" points="19.2592593 25.3703704 19.2592593 33.3181605 26.1276261 35 32.5925926 32.2475359 32.1891922 25.3703704"></polygon>
                    <path d="M26.8527072,27.5925926 L26.4806261,27.5925926 C20.4717304,27.5925926 15.5555556,22.9130516 15.5555556,17.1933864 L15.5555556,8.68513006 C15.5555556,4.41878907 19.2229065,0.925925926 23.7071251,0.925925926 L29.6262082,0.925925926 C34.1082884,0.925925926 37.7777778,4.41878907 37.7777778,8.68513006 L37.7777778,17.1933864 C37.7777778,22.9130516 32.8616029,27.5925926 26.8527072,27.5925926" id="Fill-28" fill="#FFFFFF"></path>
                    <path d="M26.8527072,27.5925926 L26.4806261,27.5925926 C20.4717304,27.5925926 15.5555556,22.9130516 15.5555556,17.1933864 L15.5555556,8.68513006 C15.5555556,4.41878907 19.2229065,0.925925926 23.7071251,0.925925926 L29.6262082,0.925925926 C34.1082884,0.925925926 37.7777778,4.41878907 37.7777778,8.68513006 L37.7777778,17.1933864 C37.7777778,22.9130516 32.8616029,27.5925926 26.8527072,27.5925926 L26.8527072,27.5925926 Z" id="Stroke-30" stroke="#5B5B5B" stroke-width="3"></path>
                    <path d="M0.158479489,52.7777778 L51.1065479,52.7777778 L51.1065479,47.6111236 C51.1065479,47.6111236 51.6581388,40.2984485 40.6324944,36.9599631 L32.3648047,34.656055 L17.7188301,34.2592593 C17.7188301,34.2592593 10.5522641,36.4842237 7.16656597,38.4702798 C7.16656597,38.4702798 0.080268832,41.1730611 0,48.3257714 L0.158479489,52.7777778 Z" id="Fill-32" fill="#FFFFFF"></path>
                    <path d="M0.158479489,52.7777778 L51.1065479,52.7777778 L51.1065479,47.6111236 C51.1065479,47.6111236 51.6581388,40.2984485 40.6324944,36.9599631 L32.3648047,34.656055 L17.7188301,34.2592593 C17.7188301,34.2592593 10.5522641,36.4842237 7.16656597,38.4702798 C7.16656597,38.4702798 0.080268832,41.1730611 0,48.3257714 L0.158479489,52.7777778 L0.158479489,52.7777778 Z" id="Stroke-34" stroke="#5B5B5B" stroke-width="3"></path>
                    <polygon id="Fill-36" fill="#FFFFFF" points="18.7037037 31.2962963 25.8183436 33.2253743 32.9147149 31.2962963 35.5555556 35.2364066 30.974174 41.6666667 25.8183436 38.2098765 21.0339766 41.6666667 16.2962963 35.3162595"></polygon>
                    <path d="M25.8183436,33.2253743 C29.367455,33.2253743 32.9147149,31.2962963 32.9147149,31.2962963 L35.5555556,35.2364066 L30.974174,41.6666667 L25.8183436,38.2098765 L21.0339766,41.6666667 L16.2962963,35.3162595 L18.7037037,31.2962963 C18.7037037,31.2962963 22.2692323,33.2253743 25.8183436,33.2253743 Z" id="Stroke-38" stroke="#5B5B5B" stroke-width="2"></path>
                </g>
                <g id="p1" transform="translate(23.000000, 31.000000)">
                    <use id="Stroke-40" stroke="#FFFFFF" mask="url(#mask-2)" stroke-width="6" xlink:href="#path-1"></use>
                    <path d="M31.5875347,33.3333333 L31.153206,33.3333333 C24.1442518,33.3333333 18.4074074,27.4845698 18.4074074,20.3342151 L18.4074074,9.69895453 C18.4074074,4.36452954 22.6868834,0 27.917354,0 L34.8233867,0 C40.0538574,0 44.3333333,4.36452954 44.3333333,9.69895453 L44.3333333,20.3342151 C44.3333333,27.4845698 38.5964889,33.3333333 31.5875347,33.3333333" id="Fill-42" fill="#FFFFFF"></path>
                    <path d="M31.5875347,33.3333333 L31.153206,33.3333333 C24.1442518,33.3333333 18.4074074,27.4845698 18.4074074,20.3342151 L18.4074074,9.69895453 C18.4074074,4.36452954 22.6868834,0 27.917354,0 L34.8233867,0 C40.0538574,0 44.3333333,4.36452954 44.3333333,9.69895453 L44.3333333,20.3342151 C44.3333333,27.4845698 38.5964889,33.3333333 31.5875347,33.3333333 L31.5875347,33.3333333 Z" id="Stroke-44" stroke="#5B5B5B" stroke-width="3"></path>
                    <path d="M0.824181427,62.962963 L63.5870098,62.962963 L63.5870098,56.5569679 C63.5870098,56.5569679 64.2648032,47.4899557 50.6838325,43.349651 L40.4981045,40.4930958 L22.4570862,40 C22.4570862,40 13.6290369,42.7587862 9.45767895,45.2221399 C9.45767895,45.2221399 0.727951506,48.5739164 0.62962963,57.4432652 L0.824181427,62.962963 Z" id="Fill-46" fill="#FFFFFF"></path>
                    <polygon id="Fill-20" fill="#FFFFFF" points="24.3333333 32.6296296 24.3333333 43.0239603 32.7274914 45.2222222 40.6296296 41.6231071 40.1354797 32.6296296"></polygon>
                    <polygon id="Stroke-22" stroke="#5B5B5B" stroke-width="2" points="23.3333333 32.6296296 23.3333333 43.0239603 31.7274914 45.2222222 39.6296296 41.6231071 39.1354797 32.6296296"></polygon>
                    <path d="M0.824181427,62.962963 L63.5870098,62.962963 L63.5870098,56.5569679 C63.5870098,56.5569679 64.2648032,47.4899557 50.6838325,43.349651 L40.4981045,40.4930958 L22.4570862,40 C22.4570862,40 13.6290369,42.7587862 9.45767895,45.2221399 C9.45767895,45.2221399 0.727951506,48.5739164 0.62962963,57.4432652 L0.824181427,62.962963 L0.824181427,62.962963 Z" id="Stroke-48" stroke="#5B5B5B" stroke-width="3"></path>
                    <polygon id="Fill-50" fill="#FFFFFF" points="22.8510788 36.2962963 31.6077823 38.6392511 40.3438721 36.2962963 43.5925926 41.0790396 37.9547432 48.8888889 31.6077823 44.691358 25.7184457 48.8888889 19.8888889 41.1779784"></polygon>
                    <path d="M31.6077823,38.6392511 C35.9768719,38.6392511 40.3438721,36.2962963 40.3438721,36.2962963 L43.5925926,41.0790396 L37.9547432,48.8888889 L31.6077823,44.691358 L25.7184457,48.8888889 L19.8888889,41.1779784 L22.8510788,36.2962963 C22.8510788,36.2962963 27.2386928,38.6392511 31.6077823,38.6392511 Z" id="Stroke-52" stroke="#5B5B5B" stroke-width="2"></path>
                    <path d="M33.2222222,50.3703704 C33.2222222,51.1877395 32.5597625,51.8518519 31.7396757,51.8518519 C30.921719,51.8518519 30.2592593,51.1877395 30.2592593,50.3703704 C30.2592593,49.5530013 30.921719,48.8888889 31.7396757,48.8888889 C32.5597625,48.8888889 33.2222222,49.5530013 33.2222222,50.3703704" id="Fill-54" fill="#5B5B5B"></path>
                    <path d="M33.2222222,57.7777778 C33.2222222,58.5951469 32.5597625,59.2592593 31.7396757,59.2592593 C30.921719,59.2592593 30.2592593,58.5951469 30.2592593,57.7777778 C30.2592593,56.9604087 30.921719,56.2962963 31.7396757,56.2962963 C32.5597625,56.2962963 33.2222222,56.9604087 33.2222222,57.7777778" id="Fill-56" fill="#5B5B5B"></path>
                    <path d="M19.0995168,13.0044072 C19.0995168,13.0044072 19.0995168,10.6844956 25.2463728,10.6844956 C31.3932287,10.6844956 35.7149054,15.3213194 39.0576328,15.7108546 C42.4003601,16.1003898 44.7814068,12.960955 44.7814068,12.960955" id="Stroke-60" stroke="#5B5B5B" stroke-width="2"></path>
                </g>
            </g>
        </g>
    </g>
</svg>