<?xml version="1.0" encoding="UTF-8"?>
<svg width="137px" height="114px" viewBox="0 0 137 114" version="1.1" xmlns="http://www.w3.org/2000/svg" xmlns:xlink="http://www.w3.org/1999/xlink">
    <!-- Generator: Sketch 42 (36781) - http://www.bohemiancoding.com/sketch -->
    <title>svg/person</title>
    <desc>Created with Sketch.</desc>
    <defs></defs>
    <g id="Symbols" stroke="none" stroke-width="1" fill="none" fill-rule="evenodd" opacity="0.6">
        <g id="person">
            <g id="svg/person">
                <g id="p1">
                    <path d="M1.99472194,88.0786043 C9.55408129,94.6574096 33.8769176,94.6449742 36.6561148,94.6166493 C39.4586786,94.6423835 63.7765205,94.6567187 71.3358798,88.0786043 L71.3358798,71.5202775 C71.3358798,64.9604707 67.6006145,59.0070586 61.5875526,55.9840655 L44.8411993,47.5644866 L36.6650333,54.9890668 L28.4890457,47.5644866 L11.7426924,55.9840655 C5.72998726,59.0070586 1.99472194,64.9599525 1.99472194,71.5202775 L1.99472194,88.0786043 Z M35.744461,96.5517241 C29.4251363,96.5517241 7.50014021,96.0417031 0.298057798,89.1846574 L0,88.9010629 L0,71.5202775 C0,64.2364584 4.1474805,57.6265648 10.8231903,54.2700632 L28.8233128,45.2204278 L36.6650333,52.3408606 L44.5069322,45.2204278 L62.5068763,54.2700632 C69.1831213,57.6265648 73.3304234,64.2364584 73.3304234,71.5202775 L73.3304234,88.9010629 L73.032544,89.1846574 C69.7405304,92.3190502 63.0175522,94.5004136 53.0498288,95.6691615 C45.5240032,96.5510333 38.5982173,96.5657139 36.6561148,96.5480972 C36.4053253,96.5503424 36.0990624,96.5517241 35.744461,96.5517241 L35.744461,96.5517241 Z" id="Fill-2" fill="#212121"></path>
                    <path d="M36.6653016,52.8024127 L28.5924666,45.2204278 L26.8878219,46.1066852 C26.9552454,54.4251173 27.8554833,82.1994398 36.6653016,94.1073767 C45.4751199,82.1994398 46.375178,54.4251173 46.4426015,46.1066852 L44.7381366,45.2204278 L36.6653016,52.8024127" id="Fill-3" fill="#FFFFFF"></path>
                    <path d="M28.9495068,47.9125899 C29.0549192,56.40482 30.0545962,81.2898339 37.8872021,93.1206805 C45.7198079,81.2898339 46.7200349,56.4051768 46.8252641,47.9125899 L46.290502,47.642089 L37.8872021,55.3124673 L29.4840856,47.642089 L28.9495068,47.9125899 Z M37.8872021,96.5517241 L37.0637014,95.4698989 C27.8992318,83.4306453 26.9618856,55.5699428 26.8931384,47.3178805 L26.8878219,46.7060416 L29.8276386,45.2204278 L37.8872021,52.5765896 L45.9469489,45.2204278 L48.8869489,46.7060416 L48.8818158,47.3178805 C48.8128852,55.5699428 47.8755391,83.4306453 38.7108861,95.4698989 L37.8872021,96.5517241 L37.8872021,96.5517241 Z" id="Fill-4" fill="#212121"></path>
                    <path d="M36.6652117,57.9625956 L35.0626994,51.2929766 L28.5901658,45.2204278 L26.8878219,46.1045371 C26.9152936,49.4890127 27.0813803,56.1022298 27.8649504,63.5530336 L36.6652117,57.9625956" id="Fill-5" fill="#FFFFFF"></path>
                    <path d="M28.7495565,47.8680407 C28.7849834,50.9789158 28.9339751,56.4376873 29.4903765,62.6392574 L35.7779935,58.4069021 L34.5201721,52.8584613 L29.2322897,47.602016 L28.7495565,47.8680407 Z M27.9544372,65.9973811 L27.798327,64.4233429 C27.0682675,57.0658987 26.9174547,50.5263579 26.8926228,47.2831724 L26.8878219,46.6814581 L29.5425236,45.2204278 L36.1907006,51.829107 L37.8873854,59.311316 L27.9544372,65.9973811 L27.9544372,65.9973811 Z" id="Fill-6" fill="#212121"></path>
                    <path d="M44.7381209,45.2204278 L38.2736804,51.279782 L36.6652117,57.9680913 L45.4650423,63.5530336 C46.2491393,56.1022509 46.4152723,49.4897755 46.4426015,46.1049184 L44.7381209,45.2204278" id="Fill-7" fill="#FFFFFF"></path>
                    <path d="M38.7768919,58.4118042 L45.060226,62.638009 C45.6165681,56.436591 45.7657214,50.9791255 45.801021,47.869025 L45.3175984,47.6029014 L40.0398894,52.8456774 L38.7768919,58.4118042 Z M46.5978315,65.9973811 L36.6652117,59.3165543 L38.3675488,51.8157649 L45.007028,45.2204278 L47.6647752,46.6820012 L47.6601349,47.2839392 C47.6351103,50.5263994 47.4846311,57.0645094 46.754111,64.4227577 L46.5978315,65.9973811 L46.5978315,65.9973811 Z" id="Fill-8" fill="#212121"></path>
                    <path d="M45.5158867,39.2517985 C45.0194167,39.011342 44.4311712,39.120897 43.8948141,39.2509164 C41.7493858,39.7716996 39.2818608,40.4717227 37.2762136,41.4714783 C35.2707429,40.4717227 32.803218,39.7716996 30.6576132,39.2509164 C30.1214326,39.120897 29.5331871,39.011342 29.036717,39.2517985 C28.1630851,39.6744938 28.0785457,40.8637214 28.1175503,41.832957 C28.1657324,43.0347102 28.2140911,44.2364634 28.2624497,45.4382167 C28.3085139,46.5858099 28.3605788,47.7616298 28.8003952,48.8227786 C29.1272571,49.6117159 29.6532012,50.2990369 30.173321,50.9763021 C32.1161373,53.5062996 36.9359384,57.442165 36.9359384,57.442165 C37.0518932,57.4031768 37.1632592,57.358014 37.2762136,57.3153211 C37.3893446,57.358014 42.4364664,53.5062996 44.3792827,50.9763021 C44.8994026,50.2990369 45.4253467,49.6117159 45.7522086,48.8227786 C46.1918484,47.7616298 46.2439134,46.5858099 46.2901541,45.4382167 C46.3385127,44.2364634 46.3868713,43.0347102 46.4350535,41.832957 C46.474058,40.8637214 46.3893422,39.6744938 45.5158867,39.2517985" id="Fill-9" fill="#E9E9E9"></path>
                    <path d="M29.5444605,39.8941591 C29.4438969,39.8941591 29.3534437,39.9063607 29.2868225,39.9384796 C29.1259567,40.0161751 28.8641661,40.3375436 28.915802,41.6205054 L29.0640297,45.287264 C29.1075411,46.3550829 29.1519552,47.4591478 29.5381415,48.3862896 C29.8239446,49.0717321 30.3254993,49.7211081 30.8109854,50.3493108 C32.3421896,52.3324288 35.7869928,55.277499 37.0715722,56.3505216 C38.1658569,55.5674663 42.1293666,52.4370396 43.7412745,50.3493108 C44.2263995,49.7223642 44.7274126,49.0737059 45.0141184,48.3862896 C45.4006658,47.4591478 45.4452604,46.3550829 45.4885913,45.287264 L45.6368189,41.6205054 C45.6884549,40.3375436 45.4263032,40.0161751 45.2652568,39.9384796 L45.2648957,39.9384796 C45.0354227,39.8275887 44.5288128,39.9510401 44.2847156,40.0093566 C42.480166,40.4452047 39.8362614,41.1451815 37.7265903,42.1907505 L37.2763105,42.4141473 L36.8260307,42.1907505 C34.7163595,41.1455403 32.072455,40.4452047 30.2675442,40.0093566 C30.094943,39.967907 29.7892799,39.8941591 29.5444605,39.8941591 Z M36.7211339,58.6643387 L36.2892697,58.3139017 C36.0847119,58.1473859 31.2446551,54.2068091 29.209188,51.5712647 C28.6709827,50.8741588 28.0601981,50.0841056 27.6729286,49.153734 C27.1491668,47.8967903 27.0948227,46.5533589 27.0467977,45.3678304 L26.8983895,41.7012512 C26.870405,41.0115022 26.7857293,38.912828 28.4075672,38.1326436 C29.2877252,37.709356 30.2352266,37.9367004 30.7434615,38.0592546 C32.5211099,38.4884637 35.0776305,39.1649344 37.2763105,40.1794611 C39.4749904,39.1643961 42.031511,38.4884637 43.8087984,38.0592546 C44.3170332,37.9370593 45.2645347,37.7089971 46.1450538,38.1326436 C47.7665306,38.9133663 47.682216,41.0115022 47.6542315,41.7012512 L47.5060038,45.3678304 C47.4577982,46.5533589 47.4034541,47.8967903 46.8793313,49.1540929 C46.4909785,50.0864382 45.8809161,50.8752355 45.3427107,51.5716235 C44.2294688,53.0130266 42.2882464,54.7397317 40.855981,55.933873 C38.7712251,57.6727797 37.960938,58.256303 37.5027142,58.3962625 C37.4191218,58.4280225 37.3349877,58.4594237 37.2490482,58.4879539 L36.7211339,58.6643387 L36.7211339,58.6643387 Z" id="Fill-10" fill="#212121"></path>
                    <path d="M51.599841,23.8306423 C50.3956113,22.9051575 49.2690296,21.6413944 48.4004725,20.4106907 C48.030786,19.8869224 47.7426985,19.3131182 47.3953444,18.7748753 C45.1949196,15.3645735 41.278854,14.4732202 37.2763793,13.443911 C33.2739046,14.4732202 29.357839,15.3645735 27.1572424,18.7748753 C26.8100601,19.3131182 26.5219726,19.8869224 26.1522861,20.4106907 C25.283729,21.6413944 24.1569755,22.9051575 22.9529176,23.8306423 C21.2934513,25.1063782 20.5293409,27.3197506 20.8478348,29.3533512 C21.1663286,31.3869518 22.4813612,33.2084361 24.2188189,34.3817772 C25.8552657,41.2888714 30.8358978,46.7910298 37.2763793,50.1091227 C43.7168608,46.7910298 48.6973211,41.2888714 50.3339397,34.3817772 C52.0713974,33.2084361 53.3862582,31.3869518 53.704752,29.3533512 C54.0232459,27.3197506 53.2593073,25.1063782 51.599841,23.8306423" id="Fill-11" fill="#FFFFFF"></path>
                    <path d="M37.8872664,14.296096 L37.6544207,14.3531818 C33.7730571,15.3074337 30.1068639,16.2083814 28.1010719,19.1925119 C27.9564226,19.407169 27.8224146,19.6283091 27.6880458,19.8489089 C27.483697,20.1856613 27.2724946,20.5332186 27.0212521,20.8755535 C25.9592879,22.3198071 24.6904499,23.6196354 23.4483054,24.53571 C22.058265,25.5614542 21.3463811,27.3647903 21.6344172,29.1292288 C21.9062209,30.7960631 23.0623334,32.4349848 24.7274239,33.5142132 L25.0618128,33.7308512 L25.1575843,34.1174862 C26.6958812,40.3488462 31.2074253,45.6459435 37.8872664,49.0795573 C44.5669272,45.6459435 49.0790123,40.3488462 50.6171289,34.1174862 L50.7129005,33.7308512 L51.0472893,33.5142132 C52.7125602,32.4349848 53.8686727,30.7960631 54.1404764,29.1292288 C54.4285125,27.3647903 53.7166286,25.5614542 52.3260471,24.53571 L52.3264078,24.53571 C51.0844436,23.6196354 49.8156057,22.3198071 48.7536415,20.8755535 C48.5022186,20.5332186 48.2910162,20.1856613 48.0866674,19.8489089 C47.9522987,19.6283091 47.818471,19.407169 47.6741824,19.1925119 C45.6680296,16.2083814 42.0012954,15.3074337 38.1195711,14.3531818 L37.8872664,14.296096 Z M37.8872664,51.3312964 L37.4397914,51.1097961 C30.1092086,47.4845755 25.100951,41.7666279 23.2962613,34.9780957 C21.314818,33.5806633 19.9916914,31.5862607 19.6434148,29.4531954 C19.2354387,26.9516833 20.2582646,24.3857021 22.2496278,22.916057 C23.3328745,22.1168553 24.4500291,20.9690158 25.3951194,19.6837742 C25.5940574,19.4131117 25.7736967,19.1177781 25.9639773,18.8046163 C26.1140374,18.5577246 26.2644583,18.3102926 26.4264223,18.0698838 C28.8670641,14.4392608 33.0893095,13.401271 37.172136,12.398037 L37.8872664,12.2217372 L38.6018558,12.398037 C42.6852234,13.401271 46.9076491,14.4389006 49.348832,18.0698838 C49.5102549,18.3102926 49.6606758,18.5577246 49.8109163,18.8046163 C50.0011969,19.1177781 50.1806559,19.4131117 50.3797741,19.6837742 C51.3246842,20.9690158 52.4418387,22.1168553 53.5247247,22.916057 L53.5250854,22.916057 C55.5164486,24.3857021 56.5394548,26.9516833 56.1312984,29.4531954 C55.7830218,31.5862607 54.4598953,33.5806633 52.478452,34.9780957 C50.6739425,41.7666279 45.6656849,47.4845755 38.3347415,51.1097961 L37.8872664,51.3312964 L37.8872664,51.3312964 Z" id="Fill-12" fill="#212121"></path>
                    <path d="M55.9915454,14.3506267 C55.7760792,13.2041178 55.4211309,12.0487813 54.6876899,11.1469234 C53.9542489,10.2452456 52.7766765,9.64190522 51.6413769,9.85863216 C51.7487532,7.44238805 49.4335625,5.2136857 47.3206388,4.07492347 C44.5993087,2.60827842 41.6573399,1.42393688 38.5778508,1.24594335 C33.9959849,0.981295083 29.5662652,2.9617433 25.6830589,5.43203403 C24.6130413,6.11284126 23.5506934,6.84985696 22.7639209,7.84989954 C21.5150022,9.43760901 21.0858536,11.5227275 20.8828731,13.5402877 C20.327263,19.0606093 22.0331554,25.4689167 24.2309813,30.5543431 C24.4043531,28.3414944 24.5775465,26.1286457 24.7509182,23.9159772 C26.5479557,24.6668649 28.3583706,24.9961889 30.2898961,24.7693733 C32.7508118,24.4805842 35.042815,23.4016336 37.285054,22.3372755 C39.1436278,21.4548744 41.0023799,20.5726535 42.861132,19.6904325 C45.0182905,22.1021727 47.38164,23.7623047 50.480571,24.6382202 C50.6015031,24.6724497 50.7210083,24.7115434 50.8398001,24.7536998 C51.1132352,27.1901213 51.4551628,30.5543431 51.4551628,30.5543431 L53.4318148,25.7964392 C55.5772011,22.3556514 56.742823,18.3457527 55.9915454,14.3506267" id="Fill-13" fill="#4C4D4A"></path>
                    <path d="M42.1572776,18.7208825 C42.4273585,18.7208825 42.6925479,18.8381306 42.8826178,19.0574687 C45.01741,21.5277151 47.1764851,22.982359 49.8835833,23.7746057 C50.0224671,23.8153321 50.1594292,23.8615374 50.2953432,23.9113952 C50.6491037,24.0410622 50.9004921,24.370891 50.9427687,24.7602571 C51.0084546,25.366587 51.0786826,26.0322715 51.146989,26.6911987 L51.6097602,25.5371629 C51.6307238,25.4854788 51.6555307,25.4356209 51.684181,25.3881373 C53.2084087,22.8579883 54.8575444,18.9186703 54.0581328,14.5198564 L54.0581328,14.5194911 C53.8285815,13.2545993 53.4877485,12.3679331 52.9860199,11.7300083 C52.4350269,11.0279805 51.6123807,10.6466502 50.9391001,10.7786913 C50.6433388,10.8369501 50.3430353,10.7512969 50.117502,10.5471171 C49.8919688,10.3427547 49.7684583,10.0415987 49.7817352,9.72966751 C49.8634932,7.82155461 47.9124818,5.84349461 46.0657642,4.81309903 C42.967695,3.08524143 40.3750231,2.21172459 37.9067351,2.06415996 C34.297329,1.84628298 30.3587946,3.18532239 25.8535444,6.15177319 C24.9571763,6.74221432 23.9418397,7.44935571 23.2383366,8.37437407 C22.094074,9.88015421 21.7631987,11.963774 21.6033513,13.6107268 C21.2553557,17.1898995 21.858583,21.6062458 23.2788662,26.1571901 L23.4462255,23.9449991 C23.4710324,23.6190054 23.6431086,23.3255198 23.9098703,23.1547613 C24.1766319,22.9840027 24.5050615,22.9569735 24.7934856,23.0822573 C26.4873436,23.8149669 28.1031123,24.0750312 29.7323326,23.8766956 C32.0086291,23.6000119 34.180457,22.5329078 36.2810087,21.5010512 L41.7420238,18.8176761 C41.8753173,18.7522948 42.0168215,18.7208825 42.1572776,18.7208825 Z M23.9102196,31.7765168 C23.52711,31.7765168 23.1726507,31.5403769 23.0155985,31.1637949 C20.3958485,24.8886456 19.1724483,18.4157086 19.6598518,13.4041728 C19.8467772,11.4799885 20.2489287,9.02490031 21.7090427,7.10345545 C22.6034892,5.92713891 23.7800707,5.10347992 24.8127022,4.42391559 C29.6736346,1.22333379 33.9942304,-0.211586103 38.0181915,0.0251017145 C40.7790963,0.190198773 43.6283975,1.1391416 46.985367,3.01109386 C48.9777815,4.12275956 51.2285723,6.21806769 51.6632174,8.74164197 C52.7108728,8.87970987 53.749444,9.48366559 54.4953984,10.4333389 C55.4385852,11.6328494 55.7930446,13.1225582 55.9773495,14.138526 C56.6997198,18.1132742 55.8019541,22.3530178 53.3804848,26.4041051 L51.4759427,31.1502803 C51.3026437,31.5811033 50.8702696,31.8327667 50.4316065,31.7653764 C49.9897988,31.6967077 49.6489658,31.3241436 49.6031953,30.8598994 C49.6002255,30.8288524 49.3222832,28.0006521 49.0728165,25.6553242 C46.3676399,24.8101149 44.0756208,23.3127358 41.9285998,20.9823835 L37.1118656,23.3494443 C34.9741036,24.3995639 32.5512367,25.5899429 29.9578659,25.9055266 C28.3980001,26.0952787 26.8624172,25.9420525 25.2929431,25.4390909 L24.8843278,30.8359749 C24.8488644,31.3029585 24.5143204,31.6848368 24.0723381,31.762637 C24.0178327,31.7721337 23.9636768,31.7765168 23.9102196,31.7765168 L23.9102196,31.7765168 Z" id="Fill-14" fill="#212121"></path>
                    <polyline id="Fill-15" fill="#40413E" points="32.9986905 59.786055 37.2936369 63.5530336 41.5539066 59.8162965 37.2072426 57.442165 32.9986905 59.786055"></polyline>
                    <path d="M34.9818823,59.8491637 L37.287841,62.051089 L39.5546636,59.8863648 L37.2146188,58.4949409 L34.9818823,59.8491637 Z M37.287841,64.7752073 L31.7765168,59.5112539 L37.2043388,56.2199913 L42.7760803,59.5334712 L37.287841,64.7752073 L37.287841,64.7752073 Z" id="Fill-16" fill="#212121"></path>
                    <path d="M37.2050853,92.885203 C38.9051758,90.8568401 40.3408745,88.3603117 41.5539066,85.5768546 L37.3069905,63.5530336 L32.9986905,85.8967677 C34.1814319,88.5511247 35.5705913,90.9350451 37.2050853,92.885203" id="Fill-17" fill="#464646"></path>
                    <path d="M34.6456992,85.4827221 C35.4866787,87.5595046 36.4117561,89.3787811 37.405129,90.9115801 C38.4513583,89.299064 39.4196653,87.3723584 40.2944293,85.1620544 L37.4975823,68.9069715 L34.6456992,85.4827221 Z M37.405129,93.6898007 L37.405129,93.6898007 C37.0834498,93.6898007 36.7808425,93.5388241 36.5892154,93.2827578 C35.1344844,91.3371576 33.8098056,88.8736664 32.6518695,85.9606646 C32.5839372,85.7897138 32.5645021,85.6038273 32.5953804,85.4229793 L36.4962173,62.750403 C36.5795887,62.2668821 37.0024397,61.9132839 37.4975823,61.9132839 C37.9927248,61.9132839 38.4155758,62.2668821 38.4989472,62.750403 L42.3442032,85.0983527 C42.3747182,85.2768614 42.3561912,85.4598687 42.2906203,85.62902 C41.1021692,88.6863403 39.7329892,91.2613994 38.2212242,93.2827578 C38.0295971,93.5388241 37.7269898,93.6898007 37.405129,93.6898007 L37.405129,93.6898007 Z" id="Fill-18" fill="#212121"></path>
                </g>
                <g id="p2" transform="translate(62.977011, 17.045977)">
                    <path d="M45.1479714,44.6633826 L37.1101954,52.1402819 L29.0724194,44.6633826 L11.6365321,53.643368 C5.29384964,56.9098504 1.3136289,63.4085451 1.3136289,70.4971101 L1.3136289,87.9499559 C8.79162481,95.2437858 33.8317137,95.2642058 37.1101954,95.2349076 C40.3886772,95.2642058 65.4289451,95.2437858 72.9064039,87.9499559 L72.9064039,70.4971101 C72.9064039,63.4085451 68.9268993,56.9098504 62.5843958,53.643368 L45.1479714,44.6633826" id="Fill-19" fill="#FFFFFF"></path>
                    <path d="M36.7727517,94.545623 C39.5854993,94.5671036 63.9792269,94.5875102 71.5626765,87.7693779 L71.5626765,70.6077833 C71.5626765,63.8084466 67.8156865,57.6386715 61.7836411,54.505542 L44.9839205,45.7792134 L36.7818776,53.4742926 L28.5796558,45.7792134 L11.7799351,54.505542 C5.74806866,57.6386715 2.00089979,63.8084466 2.00089979,70.6077833 L2.00089979,87.7693779 C9.58434934,94.5878682 33.9870239,94.5749798 36.7727517,94.545623 Z M35.8583716,96.5511982 C29.5189084,96.5511982 7.52404169,96.0225956 0.298828711,88.9157278 L0,88.6218011 L0,70.6077833 C0,63.0585935 4.16051877,56.2078823 10.8576817,52.7290936 L28.9149881,43.3497537 L36.7818776,50.7296045 L44.6485881,43.3497537 L62.7051788,52.7290936 C69.4028786,56.2078823 73.5632184,63.0585935 73.5632184,70.6077833 L73.5632184,88.6218011 L73.2643897,88.9157278 C69.9629587,92.1643157 63.2187347,94.4251524 53.2185303,95.6364812 C45.6694371,96.5504822 38.7237274,96.5680247 36.7727517,96.5474391 C36.521163,96.5497661 36.2139241,96.5511982 35.8583716,96.5511982 L35.8583716,96.5511982 Z" id="Fill-20" fill="#2D2E2B"></path>
                    <path d="M36.7816092,57.4460018 L35.1721931,50.7552094 L28.6708663,44.6633826 L26.960997,45.5502987 C26.9885901,48.9455186 20.2953742,55.57973 21.0824082,63.0541872 L36.7816092,57.4460018" id="Fill-21" fill="#FFFFFF"></path>
                    <path d="M28.1719929,46.1001818 C27.9615645,47.5194143 27.0751663,49.154409 25.9915137,51.1532772 C24.379832,54.1266837 22.4138758,57.7527893 22.3547707,61.5766168 L35.7420724,56.7262947 L34.4312569,51.2021665 L28.7450629,45.7981868 L28.1719929,46.1001818 Z M20.5638154,64.3678161 L20.4311851,63.0916434 C19.9195344,58.1635675 22.3189872,53.7380951 24.2468455,50.1821664 C25.2701468,48.2938855 26.2371915,46.5105992 26.2286462,45.470394 L26.2236614,44.8517913 L29.0786862,43.3497537 L36.2277311,50.1439209 L38.0952381,58.0163585 L20.5638154,64.3678161 L20.5638154,64.3678161 Z" id="Fill-22" fill="#2D2E2B"></path>
                    <path d="M44.8855506,44.6633826 L38.3962609,50.7419728 L36.7816092,57.4515149 L52.4808749,63.0541872 C53.2678055,55.5797512 46.5691489,48.9462838 46.5967637,45.5506812 L44.8855506,44.6633826" id="Fill-23" fill="#FFFFFF"></path>
                    <path d="M37.8228128,56.7315783 L51.2071262,61.5758753 C51.147623,57.7528836 49.1802743,54.12697 47.567451,51.1543742 C46.4830308,49.1556189 45.5958266,47.5205198 45.385071,46.1012682 L44.8114169,45.7991539 L39.1379417,51.1892058 L37.8228128,56.7315783 Z M52.9993501,64.3678161 L35.4679803,58.0221516 L37.3403732,50.1303618 L44.4775573,43.3497537 L47.3347825,44.8523845 L47.3297942,45.4712317 C47.3212429,46.5111258 48.2887943,48.2943945 49.3129986,50.1819775 C51.2425788,53.7382279 53.6437312,58.1636436 53.1320744,63.0915003 L52.9993501,64.3678161 L52.9993501,64.3678161 Z" id="Fill-24" fill="#2D2E2B"></path>
                    <path d="M45.0473545,38.8947434 C44.5493081,38.6535236 43.959195,38.7634264 43.421312,38.8938585 C41.269072,39.4162951 38.7935357,40.1185404 36.7815207,41.1214699 C34.7696827,40.1185404 32.2943234,39.4162951 30.1419064,38.8938585 C29.6040234,38.7634264 29.0140873,38.6535236 28.5158639,38.8947434 C27.6396353,39.3187807 27.5546505,40.5117836 27.5937789,41.4840961 C27.642291,42.6896644 27.6906262,43.8952327 27.7391383,45.1008011 C27.7855258,46.2520374 27.8377561,47.4315901 28.2787918,48.4961076 C28.6066914,49.2875495 29.1343054,49.9770524 29.6560766,50.6564677 C31.6050613,53.194497 36.4401651,57.1428571 36.4401651,57.1428571 C36.556488,57.1037452 36.6682076,57.058439 36.7815207,57.0156106 C36.8951878,57.058439 41.9581571,53.194497 43.9071418,50.6564677 C44.428913,49.9770524 44.956527,49.2875495 45.2844266,48.4961076 C45.7256394,47.4315901 45.7776926,46.2520374 45.8240801,45.1008011 C45.8725922,43.8952327 45.9211044,42.6896644 45.9694395,41.4840961 C46.0085679,40.5117836 45.9235831,39.3187807 45.0473545,38.8947434" id="Fill-25" fill="#FFFFFF"></path>
                    <path d="M29.5324551,39.4051138 C29.4342555,39.4051138 29.3461413,39.417071 29.2808518,39.4485465 C29.1536346,39.5095634 28.8634592,39.7926675 28.9168939,41.096529 L29.0621586,44.6901928 C29.1042694,45.7362713 29.1474418,46.8176938 29.5266162,47.7267921 C29.8068833,48.3988567 30.2984122,49.0352255 30.7740168,49.650845 C32.2746132,51.5942405 35.6502031,54.4803198 36.9096354,55.5314977 C37.9816921,54.7648307 41.8654429,51.6974592 43.4460145,49.650845 C43.9216191,49.0352255 44.413148,48.3988567 44.6934151,47.7271438 C45.0724125,46.8176938 45.1157619,45.7362713 45.1578727,44.6905445 L45.3031374,41.0968807 C45.3565722,39.7926675 45.0662198,39.5095634 44.9395334,39.4485465 L44.9391795,39.4485465 C44.7139397,39.3398768 44.2172796,39.4608554 43.9784157,39.5180038 C42.2101147,39.9451217 39.6190602,40.6310777 37.5512062,41.6557036 L37.1097503,41.8746257 L36.6684712,41.6557036 C34.6009711,40.6310777 32.0099166,39.9451217 30.2410848,39.5180038 C30.0719338,39.4773845 29.7723807,39.4051138 29.5324551,39.4051138 Z M36.566556,57.7996716 L36.1429706,57.4559023 C35.9423248,57.2927218 31.1991947,53.4310762 29.2044153,50.8483227 C28.6767914,50.1651801 28.0782161,49.3909519 27.6986878,48.479216 C27.184688,47.2463943 27.131784,45.930224 27.0850729,44.7687938 L26.9398082,41.1760091 C26.9123831,40.5004278 26.8285153,38.4439665 28.4186414,37.6788821 C29.2804979,37.2637213 30.2087055,37.4868636 30.7076657,37.6069631 C32.4497801,38.0275749 34.9550205,38.6899682 37.1097503,39.6847011 C39.2650108,38.6899682 41.7704281,38.0275749 43.5120117,37.6069631 C44.0100873,37.4872153 44.9388257,37.2637213 45.8017438,37.6788821 C47.391516,38.4439665 47.3076482,40.5004278 47.2802231,41.1763608 L47.1349585,44.7691454 C47.0882473,45.930224 47.0351664,47.2463943 46.5213435,48.4795677 C46.1418153,49.3909519 45.5432399,50.1651801 45.015616,50.8483227 C43.9244501,52.2612056 42.0218546,53.9533242 40.6183962,55.1235465 C38.5728361,56.8295564 37.7799848,57.4003365 37.3309206,57.536965 C37.2497068,57.5677372 37.1681392,57.5985094 37.0846253,57.6261165 L36.566556,57.7996716 L36.566556,57.7996716 Z" id="Fill-26" fill="#2D2E2B"></path>
                    <path d="M52.2634407,23.5559941 C51.0172211,22.6275712 49.8510128,21.3597962 48.952042,20.1251855 C48.5694104,19.5997545 48.2712352,19.0241287 47.9118958,18.484177 C45.6342423,15.0630489 41.5810504,14.1688659 37.4384236,13.136289 C33.2957969,14.1688659 29.242605,15.0630489 26.9649515,18.484177 C26.6056121,19.0241287 26.3074369,19.5997545 25.9248053,20.1251855 C25.0258345,21.3597962 23.8596262,22.6275712 22.6134066,23.5559941 C20.8958318,24.83578 20.1049651,27.0561789 20.4346114,29.0962354 C20.7642578,31.1362919 22.125338,32.9635587 23.9236352,34.1406247 C25.6175621,41.0696461 30.7725978,46.5892717 37.4384236,49.9178982 C44.1044273,46.5892717 49.2592851,41.0696461 50.9532121,34.1406247 C52.7515093,32.9635587 54.1125895,31.1362919 54.4422359,29.0962354 C54.7718822,27.0561789 53.9810155,24.83578 52.2634407,23.5559941" id="Fill-27" fill="#FFFFFF"></path>
                    <path d="M37.1098496,13.8780568 L36.8800795,13.9349777 C33.0560868,14.8801497 29.4437385,15.7728617 27.4675025,18.7297138 C27.3258732,18.941695 27.1941952,19.1599214 27.0623395,19.3781478 C26.8608242,19.7121788 26.6520231,20.0578081 26.4039496,20.3973705 C25.3576338,21.828422 24.1074926,23.1163683 22.8838292,24.0240689 C21.5140938,25.0404366 20.8128775,26.8272881 21.0964916,28.5755976 C21.3642901,30.2271951 22.5033669,31.8511352 24.1439218,32.9204982 L24.473561,33.1351559 L24.5677436,33.5182566 C26.0833732,39.6926548 30.5286159,44.9413304 37.1098496,48.3435571 C43.691261,44.9413304 48.1366813,39.6926548 49.6523109,33.5182566 L49.7466712,33.1351559 L50.0761327,32.9204982 C51.7166876,31.8511352 52.8557644,30.2271951 53.1235629,28.5755976 C53.4073547,26.8267528 52.7056053,25.0400797 51.3360476,24.0240689 L51.336403,24.0240689 C50.1125619,23.1163683 48.8624207,21.828422 47.8161049,20.3973705 C47.5685645,20.0581649 47.3604742,19.7137847 47.1591366,19.3801106 C47.0267478,19.1615273 46.8947144,18.9424087 46.7527297,18.7297138 C44.7759606,15.7728617 41.1634346,14.8801497 37.3389088,13.9346208 L37.1098496,13.8780568 Z M37.1098496,50.5747126 L36.6689682,50.3552372 C29.4464041,46.7631553 24.5119449,41.0974763 22.7340255,34.3709991 C20.7817794,32.9863409 19.4779719,31.0101694 19.135005,28.8966028 C18.7328629,26.4179574 19.7407948,23.8754322 21.7028145,22.4192214 C22.7700992,21.6273253 23.8707921,20.4899785 24.8019563,19.2164854 C24.9983182,18.9479402 25.1756659,18.6544141 25.3631426,18.3434013 C25.5106362,18.0994802 25.6584852,17.8555591 25.817174,17.6178832 C28.2220298,14.0199129 32.3822367,12.9919469 36.4050791,11.9973483 L37.1098496,11.8226601 L37.8139092,11.9973483 C41.837107,12.9914116 45.9973139,14.019556 48.4025251,17.6173479 C48.5617471,17.8555591 48.7099514,18.1007292 48.8578004,18.3453641 C49.0452772,18.6556631 49.2222694,18.9482971 49.4182759,19.2164854 C50.3494401,20.4899785 51.450133,21.6273253 52.5170623,22.4192214 L52.5174177,22.4192214 C54.4789043,23.8750754 55.4868362,26.4176006 55.0852273,28.8962459 C54.7420826,31.0101694 53.4384528,32.9863409 51.4862067,34.3709991 C49.7082874,41.0974763 44.7736504,46.7631553 37.5507309,50.3552372 L37.1098496,50.5747126 L37.1098496,50.5747126 Z" id="Fill-28" fill="#2D2E2B"></path>
                    <polyline id="Fill-29" fill="#40413E" points="32.8407225 59.6621403 36.7974918 63.7110016 40.7224959 59.6946448 36.7178963 57.1428571 32.8407225 59.6621403"></polyline>
                    <path d="M34.7809915,59.4514928 L37.1220991,61.6495706 L39.4231142,59.488623 L37.0475893,58.0998476 L34.7809915,59.4514928 Z M37.1220991,64.3678161 L31.5270936,59.1142261 L37.0373374,55.8292282 L42.6929392,59.1364011 L37.1220991,64.3678161 L37.1220991,64.3678161 Z" id="Fill-30" fill="#2D2E2B"></path>
                    <path d="M36.7160017,93.2676519 C38.2822657,91.2237659 39.6049503,88.7081314 40.7224959,85.9033723 L36.8100699,63.7110016 L32.8407225,86.2257337 C33.9303618,88.9004046 35.2101705,91.3025693 36.7160017,93.2676519" id="Fill-31" fill="#40413E"></path>
                    <path d="M34.2641374,85.7818076 C35.1124291,87.8430029 36.0441774,89.6479994 37.0451068,91.1676957 C38.0987456,89.5681939 39.0744184,87.6566115 39.9562026,85.4636568 L37.1382633,69.3358078 L34.2641374,85.7818076 Z M37.0451068,93.9244663 C36.7207976,93.9244663 36.4158884,93.7746748 36.2228037,93.5206185 C34.7577388,91.5918967 33.4228003,89.1477422 32.2551409,86.2559985 C32.1866919,86.0867466 32.1671089,85.9019621 32.1984051,85.7225337 L36.1292811,63.2279211 C36.2132867,62.7481955 36.6393543,62.3973727 37.1382633,62.3973727 C37.6369893,62.3973727 38.0632399,62.7481955 38.1470625,63.2279211 L42.0217518,85.4004552 C42.052499,85.5775627 42.0336481,85.7596691 41.9677613,85.9269571 C40.7697208,88.9602796 39.3903087,91.5151263 37.8672269,93.5206185 C37.6741421,93.7746748 37.369233,93.9244663 37.0451068,93.9244663 L37.0451068,93.9244663 Z" id="Fill-32" fill="#2D2E2B"></path>
                    <path d="M29.5698732,11.5753818 C28.3532101,11.1992231 27.0270248,10.9719385 25.8236632,11.3904813 C24.4187049,11.8794876 23.4048478,13.1941004 22.9049155,14.6226204 C22.4048104,16.051317 22.3476309,17.5972763 22.3345021,19.1144497 C22.3039257,22.657582 22.5046587,26.2872484 23.8410361,29.5566502 C24.0044556,26.2551072 25.5398385,23.2322394 27.8109546,20.8788635 C28.2101749,20.4650889 28.6380713,20.074449 28.9688834,19.6016899 C29.5159759,18.8200569 29.7640418,17.8637662 29.9478455,16.9212502 C30.2435899,15.4039002 30.3926713,13.7880073 29.848861,12.3442996 C29.7284558,12.0250062 29.8861745,11.4634172 29.5698732,11.5753818" id="Fill-33" fill="#4D4D4A"></path>
                    <path d="M31.0953644,12.3203022 L31.0957112,12.3210085 L31.0953644,12.3203022 Z M27.5632089,12.4832645 C27.1576067,12.4832645 26.7939693,12.5408221 26.4625859,12.6557608 C25.460112,13.0032253 24.5894284,13.9861189 24.1326707,15.2852264 C23.678861,16.5765654 23.6289194,18.0520535 23.6167808,19.4521517 C23.59944,21.4640204 23.6535434,23.6782237 24.0307066,25.8468751 C24.7515653,23.9261099 25.9127079,22.105276 27.4544819,20.514143 C27.5472554,20.418449 27.6412427,20.3241675 27.7355769,20.2295329 C28.0305445,19.9334465 28.3093852,19.6543097 28.5188626,19.3561046 C28.9698978,18.7141428 29.1797219,17.8723184 29.3387374,17.0578602 C29.5724919,15.8652167 29.7772872,14.329346 29.2856745,13.0297089 C29.2466576,12.926776 29.2213399,12.8254322 29.2039991,12.7286789 C28.586145,12.5646573 28.0449374,12.4832645 27.5632089,12.4832645 Z M24.1592022,30.8702791 C23.773542,30.8702791 23.4175345,30.6358113 23.2649352,30.2636288 C21.8147208,26.730014 21.6489424,22.8062079 21.6777282,19.4348491 C21.691254,17.8654326 21.7510799,16.2013815 22.3070272,14.6204888 C22.9706611,12.7316804 24.2575248,11.3342305 25.8377954,10.7867268 C27.3480091,10.2637645 28.9069505,10.5819205 30.0053193,10.9053732 C30.2144498,10.9092575 30.4159503,10.9724649 30.5893587,11.0919941 C31.0636307,11.4186249 31.0880813,11.9445886 31.1014337,12.2269035 C31.103688,12.2696303 31.103688,12.3144758 31.1088903,12.3568496 C31.7626399,14.1194196 31.5233363,15.9997532 31.2408541,17.443461 C31.0483707,18.4252953 30.7624203,19.5566736 30.0958385,20.504962 C29.789079,20.9410582 29.4368866,21.2947021 29.0963125,21.6363402 C29.0085679,21.7242657 28.9209966,21.811838 28.8346392,21.9008228 C26.5869197,24.2207838 25.2704032,27.0735942 25.1280349,29.9332904 C25.1047982,30.3937514 24.7720275,30.7765273 24.3258477,30.8556249 C24.2700102,30.8656887 24.2143461,30.8702791 24.1592022,30.8702791 L24.1592022,30.8702791 Z" id="Fill-34" fill="#2D2E2C"></path>
                    <path d="M45.3069741,11.5753818 C46.5236372,11.1992231 47.8498225,10.9719385 49.053184,11.3904813 C50.4581424,11.8794876 51.4719995,13.1941004 51.9719318,14.6226204 C52.4720368,16.051317 52.5293891,17.5972763 52.5423452,19.1144497 C52.5729216,22.657582 52.3721886,26.2872484 51.0358112,29.5566502 C50.8723917,26.2551072 49.3370088,23.2322394 47.0660655,20.8788635 C46.6666724,20.4650889 46.238776,20.074449 45.9079639,19.6016899 C45.3608714,18.8200569 45.1128055,17.8637662 44.9290018,16.9212502 C44.6332574,15.4039002 44.484176,13.7880073 45.0279863,12.3442996 C45.1483915,12.0250062 44.9906727,11.4634172 45.3069741,11.5753818" id="Fill-35" fill="#4D4D4A"></path>
                    <path d="M44.4385809,12.3198381 L44.4382341,12.3207208 L44.4385809,12.3198381 Z M46.3299407,12.728743 C46.3125999,12.825496 46.2872824,12.9271925 46.2482656,13.0297719 C45.7563074,14.3294044 45.9611021,15.8652697 46.194856,17.057909 C46.3542178,17.8723643 46.5643882,18.7145389 47.0150753,19.3557922 C47.2242052,19.6534665 47.5025248,19.9327789 47.796798,20.228158 C47.8914787,20.3233219 47.9861594,20.4181328 48.0794529,20.5145327 C49.6212224,22.1056601 50.7820148,23.9264875 51.502698,25.8468929 C51.8803803,23.6782491 51.9341368,21.4640537 51.916796,19.452192 C51.9046574,18.0513926 51.854716,16.5759097 51.4009075,15.2856346 C50.9441512,13.9861786 50.0734702,13.0032884 49.071346,12.6561782 C48.3463276,12.4051149 47.4681901,12.4271844 46.3299407,12.728743 Z M51.3743761,30.8702791 C51.319059,30.8702791 51.2633951,30.8656887 51.2073843,30.855625 C50.7612058,30.7765276 50.4287829,30.3932234 50.4055463,29.932764 C50.2635252,27.0739607 48.9470125,24.2211604 46.6989527,21.9008545 C46.6117285,21.8109872 46.5239841,21.722709 46.4357195,21.6344307 C46.0954932,21.2931469 45.7439955,20.9407401 45.4381039,20.5046455 C44.7722177,19.5575963 44.4855744,18.4260455 44.2930917,17.4440381 C44.0102634,15.9998057 43.7709605,14.1194787 44.4248817,12.3569149 C44.4302573,12.3145414 44.4302573,12.2693429 44.4321648,12.2269693 C44.445864,11.9443023 44.4704879,11.4186936 44.9445851,11.0917109 C45.117993,10.9725352 45.319493,10.909328 45.528276,10.9054437 C46.6269884,10.5819922 48.1866189,10.2634842 49.6961346,10.7871509 C51.2758804,11.3342995 52.5629138,12.7313913 53.2263724,14.6205462 C53.7824914,16.2003739 53.8423172,17.8651254 53.855843,19.4345364 C53.8851489,22.8058833 53.7191976,26.7291458 52.2686406,30.2636309 C52.1160417,30.6358121 51.7600353,30.8702791 51.3743761,30.8702791 L51.3743761,30.8702791 Z" id="Fill-36" fill="#2D2E2C"></path>
                    <path d="M57.7996716,10.1629056 C56.3525392,10.459626 54.8465687,9.9109967 53.6230565,9.08010803 C52.3997221,8.24921936 51.3873872,7.148033 50.2827955,6.16342814 C47.3636445,3.56132191 43.6859977,1.743686 39.7998401,1.37876626 C35.9136825,1.01384653 31.8380343,2.1844819 28.9610121,4.83372061 C28.7053953,5.069026 28.4520893,5.33575305 28.3052608,5.64425662 C27.9394337,5.97829029 27.5922712,6.33178396 27.2698172,6.70223819 C25.407263,8.84105346 24.8011063,11.3626417 23.6453202,13.9561784 C26.3872459,12.7464445 29.5593474,14.697801 31.3179128,17.1326225 C33.0763004,19.5672656 34.069793,22.5350057 36.0869971,24.7582667 C39.7717543,28.8198733 46.5169805,29.3252978 51.0867974,26.3045337 C54.708628,23.9104174 56.8502631,19.6626018 57.1437425,15.3042747 C57.5365889,13.6353561 57.6688413,11.8432503 57.7996716,10.1629056" id="Fill-37" fill="#4D4D4A"></path>
                    <path d="M25.7587502,12.2615399 C28.3778061,12.2615399 30.9233059,14.101892 32.4550121,16.2224101 C33.2399649,17.3095259 33.8740745,18.4865803 34.4872189,19.6250895 C35.3032642,21.1395924 36.0740033,22.5704023 37.1519364,23.7586991 C40.4186049,27.3591008 46.5695929,27.9795705 50.8640912,25.1427552 C54.0882963,23.0115301 56.1849979,19.1877093 56.4728257,14.9136598 C56.4763792,14.8592326 56.4845521,14.8049839 56.4973444,14.7516274 C56.786416,13.5231795 56.9283755,12.2126447 57.0378212,10.9126384 C55.8442239,10.8521439 54.5861319,10.3995954 53.3886258,9.58622156 C52.4689981,8.96146905 51.6762277,8.21037414 50.9097528,7.48426219 C50.5915431,7.18303905 50.2733334,6.881459 49.9471285,6.59058594 C47.0324272,3.99253633 43.5127544,2.38202752 40.0362558,2.05546451 C36.2857877,1.70659529 32.5221719,2.89774724 29.9663671,5.25060692 C29.8212095,5.38426577 29.618664,5.58198807 29.5360467,5.75579811 C29.4806132,5.87232578 29.4029707,5.97707577 29.3079165,6.06398079 C28.9667872,6.37501867 28.645557,6.70318772 28.3525767,7.03956546 C27.1085207,8.46876935 26.4530905,10.1435201 25.7591055,11.9165966 C25.7141546,12.0315182 25.6692038,12.1469752 25.6233645,12.2633244 C25.6683154,12.2622537 25.7137993,12.2615399 25.7587502,12.2615399 Z M44.8062031,28.8998358 C41.3522688,28.8998358 37.945062,27.5957252 35.6834813,25.102604 C34.441735,23.734073 33.5764747,22.1280255 32.7398195,20.5744421 C32.1305839,19.4430708 31.5547505,18.3746923 30.8469072,17.394111 C29.2954795,15.2461116 26.5763945,13.5784989 24.3812629,14.5469456 C24.004777,14.7125469 23.5662837,14.628854 23.2768567,14.3365534 C22.9877852,14.0437174 22.9074777,13.6022327 23.0750219,13.2257038 C23.3781295,12.5456319 23.6485456,11.8550314 23.910078,11.1865587 C24.6353332,9.33282294 25.3854623,7.41609439 26.8569379,5.72617545 C27.1627105,5.37498639 27.4940679,5.0323629 27.8433701,4.705443 C28.0691906,4.31606569 28.3735419,4.0100244 28.6237034,3.77982425 C31.5861984,1.05222013 35.9210281,-0.333977366 40.2210342,0.068605224 C44.1150609,0.43407027 48.037515,2.22035206 51.2656289,5.09785395 C51.6071135,5.40228919 51.9400699,5.71760987 52.272671,6.03257364 C53.0146273,6.73513022 53.7153638,7.39896322 54.5015602,7.93288481 C55.1911034,8.4018507 56.5524226,9.14580762 57.920671,8.8643924 C58.2264436,8.8008643 58.543765,8.88669862 58.7765147,9.0940572 C59.0110411,9.30177269 59.1336344,9.60727862 59.1105371,9.9193872 L59.0998768,10.0410899 C58.9701766,11.7185174 58.8351463,13.4521565 58.4492437,15.1304762 C58.0985201,19.9898408 55.6750806,24.3515091 51.9560604,26.8096541 C49.8259565,28.217444 47.3037316,28.8994789 44.8062031,28.8998358 L44.8062031,28.8998358 Z" id="Fill-38" fill="#2D2E2C"></path>
                </g>
            </g>
        </g>
    </g>
</svg>