<?xml version="1.0" encoding="UTF-8"?>
<svg width="139px" height="184px" viewBox="0 0 139 184" version="1.1" xmlns="http://www.w3.org/2000/svg" xmlns:xlink="http://www.w3.org/1999/xlink">
    <!-- Generator: Sketch 42 (36781) - http://www.bohemiancoding.com/sketch -->
    <title>svg/person1</title>
    <desc>Created with Sketch.</desc>
    <defs></defs>
    <g id="Symbols" stroke="none" stroke-width="1" fill="none" fill-rule="evenodd">
        <g id="person">
            <g id="svg/person1">
                <path d="M70.5228976,99.8313716 L55.2069203,85.7789558 L21.9828474,102.656338 C9.89686989,108.79551 2.31222056,121.009445 2.31222056,134.332008 L2.31222056,167.13366 C16.5615372,180.842007 64.2754115,180.880385 70.5228976,180.825321 C76.7700425,180.880385 124.483917,180.842007 138.733233,167.13366 L138.733233,134.332008 C138.733233,121.009445 131.148584,108.79551 119.062948,102.656338 L85.8388748,85.7789558 L70.5228976,99.8313716 Z" id="Fill-1" fill="#0077C8"></path>
                <path d="M3.77379826,167.07694 C18.0752889,179.556323 64.0914657,179.532735 69.3494063,179.479005 C74.6515541,179.52782 120.658282,179.555013 134.959773,167.07694 L134.959773,135.667331 C134.959773,123.223986 127.893054,111.930915 116.516991,106.196578 L84.8347014,90.2254179 L69.3662793,104.309158 L53.8981946,90.2254179 L22.2159046,106.196578 C10.8405164,111.930915 3.77379826,123.223003 3.77379826,135.667331 L3.77379826,167.07694 Z M67.624656,183.149662 C55.6691767,183.149662 14.1894545,182.1822 0.563893132,169.17502 L0,168.637068 L0,135.667331 C0,121.850601 7.84658474,109.312247 20.4763061,102.945274 L54.5305918,85.7789558 L69.3662793,99.2857561 L84.2023042,85.7789558 L118.256252,102.945274 C130.886986,109.312247 138.733233,121.850601 138.733233,135.667331 L138.733233,168.637068 L138.169678,169.17502 C131.941544,175.120673 119.222396,179.258516 100.364541,181.475523 C86.1264925,183.148352 73.0236543,183.1762 69.3494063,183.142782 C68.8749397,183.147041 68.2955235,183.149662 67.624656,183.149662 L67.624656,183.149662 Z" id="Fill-2" fill="#212121"></path>
                <path d="M69.3667868,100.161278 L54.0938558,85.7789558 L50.8688523,87.4601039 C50.9964102,103.239398 52.6995631,155.924711 69.3667868,178.512962 C86.0340105,155.924711 87.7368233,103.239398 87.8643812,87.4601039 L84.6397178,85.7789558 L69.3667868,100.161278" id="Fill-3" fill="#FFFFFF"></path>
                <path d="M54.7693371,90.8857376 C54.9687661,106.99471 56.860047,154.199273 71.6784905,176.641291 C86.4969339,154.199273 88.3892553,106.995387 88.5883374,90.8857376 L87.5766253,90.3726225 L71.6784905,104.922618 L55.7807024,90.3726225 L54.7693371,90.8857376 Z M71.6784905,183.149662 L70.1205162,181.09754 C52.7823304,158.260193 51.0089728,105.411026 50.8789104,89.7576289 L50.8688523,88.5970275 L56.4306676,85.7789558 L71.6784905,99.7329123 L86.9266601,85.7789558 L92.4888223,88.5970275 L92.479111,89.7576289 C92.3487017,105.411026 90.5753442,158.260193 73.2368115,181.09754 L71.6784905,183.149662 L71.6784905,183.149662 Z" id="Fill-4" fill="#212121"></path>
                <path d="M69.3666167,109.949666 L66.3348367,97.2980174 L54.0895028,85.7789558 L50.8688523,87.4560292 C50.9208256,93.8760653 51.2350437,106.420725 52.7174737,120.554208 L69.3666167,109.949666" id="Fill-5" fill="#FFFFFF"></path>
                <path d="M54.3910528,90.8012319 C54.4580767,96.7022732 54.739953,107.057056 55.7926042,118.820859 L67.6880958,110.792474 L65.3084337,100.267597 L55.3043319,90.2966077 L54.3910528,90.8012319 Z M52.8867731,125.190908 L52.5914294,122.205104 C51.2102357,108.248715 50.9249143,95.8438129 50.8779349,89.6917909 L50.8688523,88.5503947 L55.8912609,85.7789558 L68.468893,98.3150071 L71.6788373,112.508063 L52.8867731,125.190908 L52.8867731,125.190908 Z" id="Fill-6" fill="#212121"></path>
                <path d="M84.6396882,85.7789558 L72.4096657,97.2729884 L69.3666167,109.960091 L86.0149449,120.554208 C87.4983717,106.420765 87.8126772,93.8775123 87.8643812,87.4567525 L84.6396882,85.7789558" id="Fill-7" fill="#FFFFFF"></path>
                <path d="M73.3616874,110.801773 L85.2490762,118.818491 C86.3016152,107.054977 86.5837973,96.7026711 86.6505804,90.803099 L85.735997,90.2982871 L75.7511422,100.243347 L73.3616874,110.801773 Z M88.1580595,125.190908 L69.3666167,112.518 L72.5872544,98.2896984 L85.1484313,85.7789558 L90.1766017,88.551425 L90.1678227,89.6932455 C90.1204789,95.8438916 89.8357885,108.24608 88.4537236,122.203994 L88.1580595,125.190908 L88.1580595,125.190908 Z" id="Fill-8" fill="#212121"></path>
                <path d="M86.1111371,74.4570198 C85.1718694,74.0008961 84.0589725,74.2087118 83.0442429,74.4553465 C78.9853244,75.4432241 74.317034,76.7711028 70.5225663,78.6675465 C66.7284326,76.7711028 62.0601421,75.4432241 58.0008898,74.4553465 C56.9864941,74.2087118 55.8735972,74.0008961 54.9343295,74.4570198 C53.2815123,75.2588336 53.121573,77.5146881 53.1953655,79.3532379 C53.2865208,81.6328523 53.3780101,83.9124667 53.4694994,86.1920811 C53.5566479,88.368959 53.6551492,90.5993803 54.4872341,92.6122811 C55.1056215,94.1088219 56.1006508,95.412606 57.0846614,96.6973153 C60.7602598,101.496486 69.8788024,108.962457 69.8788024,108.962457 C70.0981763,108.8885 70.3088688,108.802831 70.5225663,108.721846 C70.7365978,108.802831 80.2852068,101.496486 83.9608052,96.6973153 C84.9448157,95.412606 85.9398451,94.1088219 86.5582325,92.6122811 C87.3899835,90.5993803 87.4884848,88.368959 87.5759672,86.1920811 C87.6674565,83.9124667 87.7589458,81.6328523 87.8501011,79.3532379 C87.9238936,77.5146881 87.7636204,75.2588336 86.1111371,74.4570198" id="Fill-9" fill="#E9E9E9"></path>
                <path d="M55.8949254,75.6755184 C55.7046697,75.6755184 55.5335421,75.6986637 55.407502,75.7595903 C55.1031613,75.9069713 54.6078818,76.5165775 54.7055714,78.950237 L54.9860021,85.9057379 C55.0683209,87.9312914 55.1523477,90.0256 55.8829703,91.7843019 C56.4236789,93.0845228 57.3725662,94.3163289 58.2910535,95.5079711 C61.1879263,99.2697619 67.7051215,104.856287 70.1354068,106.891711 C72.2056752,105.406328 79.704207,99.4681988 82.7537625,95.5079711 C83.6715667,94.3187115 84.6194292,93.0882668 85.1618456,91.7843019 C85.8931515,90.0256 85.9775198,87.9312914 86.0594971,85.9057379 L86.3399277,78.950237 C86.4376173,76.5165775 85.9416547,75.9069713 85.6369724,75.7595903 L85.6362892,75.7595903 C85.2021511,75.5492404 84.2436999,75.7834163 83.7818944,75.8940372 C80.3678815,76.7208007 75.3659,78.0485917 71.3746303,80.031939 L70.5227496,80.4557021 L69.6708688,80.031939 C65.6795991,78.0492724 60.6776176,76.7208007 57.2629215,75.8940372 C56.9363786,75.8154113 56.3580971,75.6755184 55.8949254,75.6755184 Z M69.4724154,111.280807 L68.655375,110.616061 C68.2683739,110.300196 59.1115096,102.825287 55.260626,97.8259041 C54.2423997,96.503559 53.0868613,95.0049013 52.3541892,93.2400727 C51.3632886,90.8557672 51.2604754,88.3074024 51.1696173,86.0585649 L50.888845,79.1034043 C50.8359013,77.7950145 50.675704,73.8140242 53.744046,72.3340869 C55.4092099,71.5311495 57.2017801,71.9624007 58.1633055,72.1948748 C61.5264242,73.0090445 66.3630848,74.2922468 70.5227496,76.2167098 C74.6824143,74.2912256 79.5190749,73.0090445 82.8815104,72.1948748 C83.8430358,71.9630815 85.6356061,71.5304687 87.3014531,72.3340869 C90.3691119,73.8150453 90.2095978,77.7950145 90.1566541,79.1034043 L89.8762234,86.0585649 C89.7850237,88.3074024 89.6822105,90.8557672 88.6906268,93.2407535 C87.9559052,95.0093262 86.8017332,96.5056013 85.7835068,97.8265848 C83.6773734,100.560793 80.0047904,103.836192 77.2950991,106.101367 C73.3509664,109.399912 71.8179909,110.506802 70.9510809,110.772292 C70.7929331,110.832538 70.6337605,110.892103 70.4711722,110.946222 L69.4724154,111.280807 L69.4724154,111.280807 Z" id="Fill-10" fill="#212121"></path>
                <path d="M97.6213208,45.2045174 C95.3430485,43.4489585 93.2116775,41.0517172 91.5684614,38.7171866 C90.8690545,37.7236467 90.3240242,36.6351934 89.6668677,35.6141964 C85.5039019,29.1451703 78.0951291,27.4543559 70.5228798,25.5018517 C62.9506304,27.4543559 55.5418576,29.1451703 51.3785668,35.6141964 C50.7217353,36.6351934 50.176705,37.7236467 49.4772981,38.7171866 C47.834082,41.0517172 45.702386,43.4489585 43.4244387,45.2045174 C40.2849078,47.6244701 38.8392936,51.823032 39.4418496,55.6805837 C40.0444055,59.5381354 42.5323049,62.9933221 45.8193872,65.2190413 C48.9153676,78.3211581 58.3381851,88.7582421 70.5228798,95.0523564 C82.7075744,88.7582421 92.1300669,78.3211581 95.2263723,65.2190413 C98.5134546,62.9933221 101.001029,59.5381354 101.603585,55.6805837 C102.206141,51.823032 100.760852,47.6244701 97.6213208,45.2045174" id="Fill-11" fill="#FFFFFF"></path>
                <path d="M71.6786122,27.1183677 L71.2380932,27.2266542 C63.8949729,29.0367814 56.9589318,30.7457956 53.1641901,36.4064143 C52.8905292,36.813599 52.6370005,37.2330812 52.3827893,37.6515386 C51.9961836,38.2903266 51.5966114,38.9496106 51.1212877,39.5989882 C49.1121663,42.3386032 46.7116621,44.8042568 44.3616588,46.5419653 C41.7318527,48.4877069 40.3850453,51.9084681 40.9299785,55.2554443 C41.4442017,58.4172743 43.6314415,61.5261567 46.7816128,63.5733529 L47.4142403,63.9842951 L47.5954298,64.7177058 C50.5057213,76.5380176 59.0410749,86.5861195 71.6786122,93.0993665 C84.3158082,86.5861195 92.8521855,76.5380176 95.7621358,64.7177058 L95.9433252,63.9842951 L96.5759528,63.5733529 C99.7264653,61.5261567 101.913705,58.4172743 102.427928,55.2554443 C102.972861,51.9084681 101.626054,48.4877069 98.9952243,46.5419653 L98.9959067,46.5419653 C96.6462447,44.8042568 94.2457405,42.3386032 92.2366191,39.5989882 C91.7609542,38.9496106 91.361382,38.2903266 90.9747762,37.6515386 C90.720565,37.2330812 90.4673775,36.813599 90.1943991,36.4064143 C86.398975,30.7457956 79.4619102,29.0367814 72.1181075,27.2266542 L71.6786122,27.1183677 Z M71.6786122,97.3707065 L70.8320378,96.9505411 C56.9633677,90.073834 47.4882857,79.2274178 44.0740078,66.3502021 C40.3253313,63.6994025 37.8221189,59.9162059 37.1632172,55.8699789 C36.3913706,51.1248426 38.3264466,46.2574142 42.0938904,43.4696339 C44.1432761,41.9536224 46.2568117,39.7762775 48.0448206,37.3382933 C48.4211896,36.8248717 48.7610478,36.2646512 49.1210381,35.6706124 C49.4049357,35.2022817 49.6895157,34.7329262 49.995934,34.276893 C54.6133645,27.389938 62.6013963,25.4209677 70.3256627,23.5179259 L71.6786122,23.1835016 L73.0305379,23.5179259 C80.755828,25.4209677 88.7442011,27.3892548 93.3626552,34.276893 C93.6680498,34.7329262 93.9526299,35.2022817 94.2368687,35.6706124 C94.596859,36.2646512 94.936376,36.8248717 95.3130862,37.3382933 C97.1007538,39.7762775 99.2142895,41.9536224 101.262993,43.4696339 L101.263675,43.4696339 C105.031119,46.2574142 106.966536,51.1248426 106.194348,55.8699789 C105.535447,59.9162059 103.032234,63.6994025 99.2835577,66.3502021 C95.869621,79.2274178 86.3945391,90.073834 72.5251866,96.9505411 L71.6786122,97.3707065 L71.6786122,97.3707065 Z" id="Fill-12" fill="#212121"></path>
                <path d="M105.929951,27.2218073 C105.522312,25.0469863 104.850788,22.8554201 103.463197,21.1446794 C102.075606,19.4342804 99.8477664,18.2897996 97.6999023,18.7009105 C97.9030467,14.1175196 93.5229561,9.88987802 89.5255329,7.72975173 C84.3770705,4.94766217 78.8111835,2.70107614 72.9851231,2.36343894 C64.3167282,1.86142572 55.9361774,5.61815224 48.589571,10.3040646 C46.5652133,11.5954927 44.5553658,12.9935431 43.0668774,14.8905311 C40.7040582,17.9022686 39.8921554,21.857545 39.5081382,25.6846695 C38.456984,36.1562072 41.6843481,48.3121719 45.8423971,57.9587539 C46.1703977,53.7611853 46.4980609,49.5636166 46.8260615,45.3663898 C50.2258621,46.790754 53.6509715,47.4154512 57.3052088,46.985203 C61.9609954,46.4373968 66.2972175,44.3907276 70.5392914,42.3717391 C74.055512,40.6979061 77.5720701,39.0244148 81.0886281,37.3509235 C85.1697387,41.9257709 89.6409406,45.0748872 95.5037829,46.7364177 C95.7325734,46.8013479 95.9586644,46.875505 96.1834056,46.9554718 C96.7007152,51.5771373 97.3476053,57.9587539 97.3476053,57.9587539 L101.087217,48.9334517 C105.146056,42.4065964 107.351287,34.8001906 105.929951,27.2218073" id="Fill-13" fill="#4C4D4A"></path>
                <path d="M79.7570117,35.5117771 C80.2679756,35.5117771 80.7696853,35.734186 81.1292769,36.1502498 C85.168073,40.8360782 89.2528096,43.5954027 94.3743468,45.0982212 C94.6370999,45.1754754 94.8962174,45.2631224 95.1533519,45.3576982 C95.8226287,45.6036643 96.2982283,46.2293191 96.378211,46.9679104 C96.5024817,48.1180619 96.6353455,49.3808036 96.7645738,50.6307274 L97.6400869,48.4416287 C97.6797478,48.3435886 97.7266798,48.2490129 97.7808829,48.1589408 C100.664557,43.359483 103.784543,35.8869621 102.272143,27.5428203 L102.272143,27.5421275 C101.837857,25.142745 101.193038,23.4608216 100.243821,22.2507374 C99.2014022,20.9190559 97.6450446,20.1957075 96.3712704,20.4461773 C95.811722,20.5566888 95.2435804,20.3942126 94.8168958,20.0069025 C94.3902112,19.619246 94.1565427,19.047981 94.1816612,18.4562765 C94.3363385,14.8367634 90.6452358,11.0845671 87.1514458,9.13000229 C81.2902339,5.85241674 76.3851788,4.19543633 71.7154447,3.91551993 C64.8868386,3.50222751 57.4355573,6.04226104 48.9121111,11.669343 C47.2162794,12.789355 45.2953725,14.1307366 43.9644206,15.8854106 C41.7995994,18.7417358 41.1736191,22.6941693 40.8712051,25.8182859 C40.2128351,32.6076444 41.3540759,40.9850436 44.0410982,49.6177626 L44.357724,45.4214415 C44.404656,44.8030618 44.7302054,44.2463469 45.2348897,43.9224337 C45.7395739,43.5985205 46.3609272,43.5472487 46.9065943,43.7849005 C50.1111906,45.1747825 53.1680503,45.6681005 56.250359,45.2918762 C60.5568658,44.767033 64.6657294,42.7428355 68.6397462,40.7854992 L78.9713964,35.6953857 C79.2235733,35.5713633 79.491284,35.5117771 79.7570117,35.5117771 Z M45.2355507,60.277104 C44.5107487,60.277104 43.8401499,59.8291685 43.5430241,59.1148274 C38.5867404,47.2114515 36.2721996,34.9328906 37.1943142,25.4264722 C37.5479568,21.7764731 38.308784,17.1193985 41.0711619,13.4745959 C42.763358,11.2432326 44.9893229,9.68082789 46.9429501,8.39175741 C56.1393086,2.3205507 64.3134089,-0.401359206 71.9263082,0.0476156233 C77.1496416,0.360789424 82.5402115,2.16084592 88.8912349,5.71176568 C92.6606678,7.82049236 96.9189206,11.7950975 97.7412221,16.5820837 C99.7232729,16.8439857 101.688137,17.9896337 103.099402,19.7910759 C104.88381,22.066436 105.554409,24.8922753 105.903094,26.819472 C107.26974,34.3592006 105.571265,42.4016008 100.990106,50.0861376 L97.3869185,59.0891915 C97.0590556,59.9064227 96.2410506,60.3838049 95.4111474,60.2559717 C94.5752951,60.1257136 93.9304759,59.418994 93.843883,58.5383659 C93.8382644,58.4794726 93.3124277,53.1146391 92.8404636,48.6657697 C87.722562,47.0624861 83.3863096,44.2220967 79.324378,39.8016346 L70.2116377,44.2917294 C66.1672229,46.2837087 61.5834207,48.5417473 56.6770436,49.1403804 C53.7259462,49.5003224 50.8207893,49.2096666 47.851514,48.2555951 L47.078458,58.4929834 C47.011365,59.378808 46.378444,60.1031956 45.5422612,60.2507753 C45.439143,60.2687897 45.3366858,60.277104 45.2355507,60.277104 L45.2355507,60.277104 Z" id="Fill-14" fill="#212121"></path>
                <polyline id="Fill-15" fill="#40413E" points="62.4299551 113.408599 70.5555292 120.554208 78.615499 113.465965 70.3920805 108.962457 62.4299551 113.408599"></polyline>
                <path d="M66.1819395,113.528311 L70.544564,117.705159 L74.8331474,113.598878 L70.4060355,110.959476 L66.1819395,113.528311 Z M70.544564,122.872558 L60.1177345,112.887327 L70.3865869,106.644107 L80.9277195,112.929471 L70.544564,122.872558 L70.544564,122.872558 Z" id="Fill-16" fill="#212121"></path>
                <path d="M70.3879993,176.194612 C73.6043866,172.346996 76.3205734,167.611313 78.615499,162.331353 L70.5807928,120.554208 L62.4299551,162.938199 C64.6675739,167.973267 67.2957133,172.495343 70.3879993,176.194612" id="Fill-17" fill="#464646"></path>
                <path d="M65.5459174,162.152792 C67.1369596,166.092256 68.8871061,169.543255 70.7664603,172.450832 C72.745813,169.392039 74.5777452,165.737257 76.2327041,161.544516 L70.9413718,130.710132 L65.5459174,162.152792 Z M70.7664603,177.720859 L70.7664603,177.720859 C70.157878,177.720859 69.5853777,177.43447 69.22284,176.948736 C66.4706463,173.258113 63.964497,168.585099 61.7738071,163.059405 C61.6452867,162.735127 61.6085174,162.382518 61.6669358,162.039466 L69.0468976,119.031692 C69.2046272,118.114498 70.0046156,117.443755 70.9413718,117.443755 C71.878128,117.443755 72.6781164,118.114498 72.8358461,119.031692 L80.1106547,161.423679 C80.1683858,161.762294 80.1333348,162.109442 80.0092816,162.430306 C77.7608606,168.229759 75.1705201,173.114407 72.3104241,176.948736 C71.9478864,177.43447 71.3753862,177.720859 70.7664603,177.720859 L70.7664603,177.720859 Z" id="Fill-18" fill="#212121"></path>
            </g>
        </g>
    </g>
</svg>