<?xml version="1.0" encoding="UTF-8"?>
<svg width="140px" height="183px" viewBox="0 0 140 183" version="1.1" xmlns="http://www.w3.org/2000/svg" xmlns:xlink="http://www.w3.org/1999/xlink">
    <!-- Generator: Sketch 42 (36781) - http://www.bohemiancoding.com/sketch -->
    <title>svg/person2</title>
    <desc>Created with Sketch.</desc>
    <defs></defs>
    <g id="Symbols" stroke="none" stroke-width="1" fill="none" fill-rule="evenodd" opacity="0.6">
        <g id="person2">
            <g id="svg/person2">
                <g id="p2">
                    <path d="M85.4150811,84.4982914 L70.2084779,98.6437765 L55.0018746,84.4982914 L22.0150607,101.487453 C10.0153912,107.667285 2.48524386,119.962112 2.48524386,133.372911 L2.48524386,166.391808 C16.6328037,180.190946 64.0059449,180.229579 70.2084779,180.174149 C76.4110108,180.229579 123.784491,180.190946 137.931034,166.391808 L137.931034,133.372911 C137.931034,119.962112 130.402242,107.667285 118.402911,101.487453 L85.4150811,84.4982914" id="Fill-19" fill="#F8E81C"></path>
                    <path d="M69.5700708,178.870098 C74.8914852,178.910737 121.041781,178.949344 135.388847,166.050174 L135.388847,133.582293 C135.388847,120.718683 128.299948,109.046135 116.88797,103.118593 L85.1047144,86.6093227 L69.587336,101.167581 L54.0696191,86.6093227 L22.2863638,103.118593 C10.8747245,109.046135 3.78548608,120.718683 3.78548608,133.582293 L3.78548608,166.050174 C18.1325528,178.950021 64.299775,178.925638 69.5700708,178.870098 Z M67.8401625,182.664429 C55.8465835,182.664429 14.2346735,181.66437 0.565351615,168.218944 L0,167.662867 L0,133.582293 C0,119.300042 7.87125173,106.339237 20.54156,99.7577446 L54.7040316,82.0130475 L69.587336,95.9749275 L84.4703019,82.0130475 L118.631419,99.7577446 C131.302743,106.339237 139.173656,119.300042 139.173656,133.582293 L139.173656,167.662867 L138.608305,168.218944 C132.362354,174.364922 119.603012,178.64218 100.683706,180.933883 C86.4016378,182.663074 73.2611059,182.696263 69.5700708,182.657317 C69.0940921,182.66172 68.5128294,182.664429 67.8401625,182.664429 L67.8401625,182.664429 Z" id="Fill-20" fill="#000000"></path>
                    <path d="M69.5868282,108.681625 L66.541987,96.0233691 L54.2421795,84.4982914 L51.0072916,86.1762407 C51.0594948,92.5996297 38.3966538,105.150841 39.8856371,119.291705 L69.5868282,108.681625" id="Fill-21" fill="#FFFFFF"></path>
                    <path d="M53.2983649,87.2165602 C52.9002572,89.9015946 51.2232875,92.9948279 49.173134,96.7764703 C46.1240065,102.401834 42.4046299,109.262034 42.2928095,116.496302 L67.620137,107.320017 L65.1402158,96.8689636 L54.3825515,86.6452182 L53.2983649,87.2165602 Z M38.9045157,121.776949 L38.6535934,119.362569 C37.6856057,110.039182 42.225111,101.666666 45.8724105,94.9392338 C47.8083859,91.3668104 49.6379298,87.9930256 49.621763,86.0250698 L49.6123324,84.8547402 L55.0137307,82.0130475 L68.5389506,94.8668774 L72.0720721,109.760678 L38.9045157,121.776949 L38.9045157,121.776949 Z" id="Fill-22" fill="#000000"></path>
                    <path d="M84.9186092,84.4982914 L72.6415746,95.998327 L69.5868282,108.692055 L99.2881417,119.291705 C100.776929,105.150881 88.1037953,92.6010775 88.1560394,86.1769644 L84.9186092,84.4982914" id="Fill-23" fill="#FFFFFF"></path>
                    <path d="M71.5566728,107.330013 L96.8783469,116.494899 C96.7657732,109.262212 93.0437621,102.402376 89.9924748,96.7785459 C87.9408691,92.9971169 86.2623746,89.9036861 85.8636479,87.2186155 L84.7783562,86.6470478 L74.0447545,96.8444434 L71.5566728,107.330013 Z M100.269041,121.776949 L67.1015843,109.771638 L70.6439493,94.8412251 L84.14673,82.0130475 L89.5522913,84.8558626 L89.542854,86.0266545 C89.5266757,87.9940218 91.3571785,91.3677735 93.2948622,94.9388764 C96.9454193,101.666918 101.48814,110.039326 100.520141,119.362298 L100.269041,121.776949 L100.269041,121.776949 Z" id="Fill-24" fill="#000000"></path>
                    <path d="M85.2247246,73.5846497 C84.2824749,73.1282878 83.1660445,73.3362121 82.1484281,73.5829756 C78.0766228,74.5713691 73.3931757,75.8999413 69.5866607,77.7973755 C65.7804807,75.8999413 61.0973686,74.5713691 57.0252283,73.5829756 C56.0076119,73.3362121 54.8915165,73.1282878 53.9489318,73.5846497 C52.2912019,74.3868823 52.1304198,76.643915 52.2044466,78.483425 C52.2962263,80.7642299 52.3876711,83.0450349 52.4794508,85.3258399 C52.567211,87.5038546 52.666025,89.7354407 53.5004169,91.7493928 C54.1207676,93.2467152 55.1189561,94.5511803 56.1060909,95.8365605 C59.7933592,100.638238 68.9408528,108.108108 68.9408528,108.108108 C69.1609233,108.034113 69.3722847,107.948398 69.5866607,107.867371 C69.8017067,107.948398 79.3802972,100.638238 83.0675655,95.8365605 C84.0547003,94.5511803 85.0528888,93.2467152 85.6732396,91.7493928 C86.5079664,89.7354407 86.6064454,87.5038546 86.6942056,85.3258399 C86.7859853,83.0450349 86.8777651,80.7642299 86.9692099,78.483425 C87.0432366,76.643915 86.8824545,74.3868823 85.2247246,73.5846497" id="Fill-25" fill="#FFFFFF"></path>
                    <path d="M55.8722124,74.5502153 C55.6864294,74.5502153 55.5197267,74.572837 55.3962061,74.6323854 C55.155525,74.7478226 54.6065444,75.283425 54.7076371,77.75019 L54.9824622,84.5490134 C55.0621313,86.5280808 55.1438089,88.5740153 55.8611659,90.293931 C56.3914008,91.5654045 57.3213204,92.7693455 58.2211129,93.9340312 C61.0600791,97.6107252 67.4463302,103.070875 69.8290399,105.05959 C71.8572554,103.609139 79.204892,97.8060038 82.1951625,93.9340312 C83.0949551,92.7693455 84.0248747,91.5654045 84.5551096,90.2945964 C85.2721318,88.5740153 85.3541442,86.5280808 85.4338133,84.5496787 L85.7086383,77.7508553 C85.8097311,75.283425 85.2604158,74.7478226 85.0207389,74.6323854 L85.0200694,74.6323854 C84.5939399,74.4267939 83.6543128,74.6556724 83.202408,74.7637909 C79.8569738,75.5718519 74.9549788,76.8696064 71.0428226,78.8080878 L70.2076356,79.2222648 L69.3727834,78.8080878 C65.4612967,76.8696064 60.5593016,75.5718519 57.2128632,74.7637909 C56.8928477,74.6869436 56.3261257,74.5502153 55.8722124,74.5502153 Z M69.1799707,109.35073 L68.3785929,108.700356 C67.9989929,108.391636 59.0255034,101.08582 55.2515966,96.1995294 C54.2533892,94.9070976 53.1209493,93.4423415 52.4029229,91.7174357 C51.4304908,89.3850704 51.3304022,86.8950183 51.2420297,84.6977179 L50.9672047,77.9005579 C50.9153193,76.6224309 50.7566506,72.7318286 53.7649973,71.2843715 C55.3955366,70.4989323 57.151605,70.9210934 58.0955838,71.1483085 C61.3914759,71.9440606 66.1311199,73.1972371 70.2076356,75.0791642 C74.2851555,73.1972371 79.0251343,71.9440606 82.3200221,71.1483085 C83.2623272,70.9217587 85.0193999,70.4989323 86.6519477,71.2843715 C89.6596249,72.7318286 89.5009561,76.6224309 89.4490708,77.9012232 L89.1742457,84.6983833 C89.0858732,86.8950183 88.98545,89.3850704 88.0133526,91.7181011 C87.2953262,93.4423415 86.1628863,94.9070976 85.1646789,96.1995294 C83.100311,98.8725512 79.5008059,102.073857 76.8456144,104.287791 C72.975636,107.515377 71.4756469,108.595231 70.6260659,108.853718 C70.4724183,108.911935 70.3181012,108.970153 70.1601019,109.022382 L69.1799707,109.35073 L69.1799707,109.35073 Z" id="Fill-26" fill="#000000"></path>
                    <path d="M98.8767798,44.5653942 C96.519067,42.8089185 94.3127268,40.4104252 92.6119713,38.0746754 C91.8880737,37.0806166 91.3239584,35.9915948 90.6441271,34.9700646 C86.335053,28.49766 78.666852,26.8059626 70.8294501,24.8524386 C62.9920482,26.8059626 55.3238473,28.49766 51.0147732,34.9700646 C50.3349419,35.9915948 49.7708265,37.0806166 49.046929,38.0746754 C47.3461734,40.4104252 45.1398333,42.8089185 42.7821205,44.5653942 C39.5326548,46.9866108 38.0364204,51.1873655 38.6600757,55.0469319 C39.2837309,58.9064982 41.8587475,62.3634894 45.2609314,64.590371 C48.4656581,77.6993305 58.2184283,88.1418654 70.8294501,94.4392669 C83.4408083,88.1418654 93.1932422,77.6993305 96.3979689,64.590371 C99.8001528,62.3634894 102.375169,58.9064982 102.998825,55.0469319 C103.62248,51.1873655 102.126246,46.9866108 98.8767798,44.5653942" id="Fill-27" fill="#FFFFFF"></path>
                    <path d="M70.2078235,26.2557832 L69.7731233,26.3634713 C62.5385426,28.1516346 55.7043702,29.8405492 51.9655454,35.4345937 C51.6975979,35.8356392 51.4484774,36.2485 51.1990207,36.6613608 C50.8177756,37.2933112 50.4227464,37.9472044 49.9534181,38.5896199 C47.9739019,41.2970145 45.6087699,43.7336697 43.2937309,45.4509411 C40.7023397,47.3737989 39.3757142,50.7543289 39.9122814,54.0619414 C40.4189273,57.1865854 42.5739374,60.2589044 45.6776899,62.2820237 L46.3013316,62.6881328 L46.479515,63.4129179 C49.3469223,75.0942118 57.7568408,85.0241386 70.2078235,91.4607837 C82.6591423,85.0241386 91.069397,75.0942118 93.9368044,63.4129179 L94.1153239,62.6881328 L94.7386295,62.2820237 C97.842382,60.2589044 99.9973921,57.1865854 100.504038,54.0619414 C101.040941,50.7533161 99.7133073,47.3731238 97.1222522,45.4509411 L97.1229246,45.4509411 C94.8075495,43.7336697 92.4424175,41.2970145 90.4629012,38.5896199 C89.9945815,37.9478796 89.6008972,37.2963495 89.2199882,36.6650742 C88.9695229,36.2515382 88.71973,35.8369895 88.4511102,35.4345937 C84.7112768,29.8405492 77.8767681,28.1516346 70.6411789,26.3627961 L70.2078235,26.2557832 Z M70.2078235,95.6818888 L69.3737236,95.2666649 C55.7094131,88.4708343 46.3739497,77.7519821 43.0103185,65.0262146 C39.31688,62.4065908 36.8502171,58.6678881 36.2013607,54.6692485 C35.4405514,49.9799195 37.3474496,45.1697367 41.0593788,42.4147432 C43.0785661,40.9165615 45.1609581,38.7648241 46.92262,36.355513 C47.2941155,35.8474545 47.6296382,35.2921348 47.9843239,34.7037322 C48.2633658,34.2422598 48.54308,33.7807874 48.8433022,33.3311303 C53.3930294,26.5241596 61.2636911,24.579359 68.874474,22.697686 L70.2078235,22.3671948 L71.5398282,22.697686 C79.1512835,24.5783463 87.0219452,26.5234844 91.5723448,33.3301176 C91.8735755,33.7807874 92.1539622,34.2446228 92.4336764,34.7074455 C92.7883622,35.2944978 93.1232124,35.8481296 93.4940355,36.355513 C95.2556975,38.7648241 97.3380894,40.9165615 99.3566043,42.4147432 L99.3572767,42.4147432 C103.068197,45.1690615 104.975096,49.9792443 104.215295,54.6685734 C103.566102,58.6678881 101.099776,62.4065908 97.406337,65.0262146 C94.0427058,77.7519821 84.7069062,88.4708343 71.0419233,95.2666649 L70.2078235,95.6818888 L70.2078235,95.6818888 Z" id="Fill-28" fill="#000000"></path>
                    <polyline id="Fill-29" fill="#000000" points="62.1310966 112.87432 69.6168763 120.534327 77.0425598 112.935814 69.4662904 108.108108 62.1310966 112.87432"></polyline>
                    <path d="M65.8018758,112.475797 L70.2309983,116.634323 L74.5842701,112.546044 L70.0900339,109.918631 L65.8018758,112.475797 Z M70.2309983,121.776949 L59.6458527,111.837725 L70.0706383,105.622864 L80.7704256,111.879678 L70.2309983,121.776949 L70.2309983,121.776949 Z" id="Fill-30" fill="#000000"></path>
                    <path d="M69.4627059,176.452314 C72.4259081,172.585503 74.9282844,167.826195 77.0425598,162.519893 L69.6406728,120.534327 L62.1310966,163.129767 C64.1925763,168.189955 66.613836,172.734591 69.4627059,176.452314" id="Fill-31" fill="#000000"></path>
                    <path d="M64.8240436,162.289906 C66.42892,166.189465 68.191687,169.604323 70.0853372,172.479424 C72.0787078,169.45334 73.9245753,165.836833 75.5928157,161.687999 L70.2615793,131.175853 L64.8240436,162.289906 Z M70.0853372,177.694936 C69.4717793,177.694936 68.8949241,177.411547 68.5296286,176.9309 C65.7578843,173.281967 63.2323249,168.657891 61.0232395,163.187024 C60.8937414,162.866818 60.8566924,162.517226 60.9159015,162.177766 L68.352694,119.620391 C68.5116235,118.712802 69.3176973,118.049084 70.2615793,118.049084 C71.205115,118.049084 72.011535,118.712802 72.1701183,119.620391 L79.5006116,161.568429 C79.5587819,161.903497 79.5231179,162.248023 79.3984674,162.564513 C77.1319042,168.303232 74.5222056,173.136725 71.6406995,176.9309 C71.2754041,177.411547 70.6985488,177.694936 70.0853372,177.694936 L70.0853372,177.694936 Z" id="Fill-32" fill="#000000"></path>
                    <path d="M55.9430034,21.899371 C53.6412083,21.1877194 51.1322091,20.7577215 48.8555791,21.5495591 C46.1975499,22.4747062 44.2794417,24.9618115 43.3336239,27.664417 C42.3874792,30.3673565 42.2793017,33.2921443 42.2544634,36.1624723 C42.1966162,42.8656956 42.5763813,49.7326322 45.1046629,55.917987 C45.4138349,49.6718244 48.3186134,43.9528854 52.6153194,39.5005526 C53.3706011,38.7177358 54.1801349,37.9786873 54.8059957,37.0842783 C55.8410355,35.6055131 56.3103494,33.7963143 56.6580861,32.0131761 C57.2176024,29.142514 57.4996483,26.0854191 56.4708181,23.3540803 C56.2430244,22.7500118 56.5414113,21.687546 55.9430034,21.899371" id="Fill-33" fill="#000000"></path>
                    <path d="M58.8290678,23.3086799 L58.829724,23.310016 L58.8290678,23.3086799 Z M52.1466115,23.6169868 C51.3792559,23.6169868 50.6912933,23.7258797 50.0643517,23.9433313 C48.1677794,24.6006965 46.5205403,26.460225 45.6564041,28.917996 C44.7978451,31.3610697 44.703361,34.1525337 44.6803961,36.8013681 C44.6475891,40.6076062 44.7499469,44.7966394 45.463499,48.8994935 C46.8272857,45.2656133 49.0240419,41.8207925 51.9409116,38.8105408 C52.116429,38.6294981 52.2942429,38.4511277 52.472713,38.2720892 C53.0307599,37.7119258 53.5582964,37.1838291 53.9546048,36.6196574 C54.8079147,35.4051351 55.2048793,33.8124942 55.5057195,32.2716274 C55.9479577,30.0152748 56.3354083,27.1095736 55.4053301,24.6508005 C55.3315143,24.4560628 55.2836161,24.2643312 55.2508091,24.0812844 C54.081896,23.7709733 53.0579897,23.6169868 52.1466115,23.6169868 Z M45.7065988,58.4032308 C44.9769713,58.4032308 44.3034437,57.9596429 44.0147422,57.2555139 C41.2710934,50.5702967 40.9574586,43.1468798 41.0119182,36.7686335 C41.0375076,33.7994671 41.1506917,30.6512623 42.2024839,27.6603842 C43.4580075,24.0869629 45.8926145,21.4431389 48.8823157,20.407321 C51.7394767,19.4179329 54.6888253,20.0198497 56.7668203,20.6317872 C57.1624726,20.6391358 57.5436898,20.7587175 57.8717598,20.9848538 C58.769031,21.6028038 58.8152889,22.5978703 58.8405503,23.1319796 C58.8448152,23.2128141 58.8448152,23.297657 58.8546573,23.3778235 C60.0914809,26.7124154 59.6387444,30.2698034 59.1043185,33.0011425 C58.7401609,34.8586669 58.1991736,36.9991121 56.9380728,38.7931714 C56.3577171,39.6182182 55.691407,40.2872743 55.0470777,40.9336166 C54.8810743,41.0999621 54.715399,41.2656395 54.5520202,41.4339891 C50.2995778,45.8231044 47.8088709,51.2203134 47.5395255,56.6305493 C47.4955641,57.5016918 46.8659979,58.2258625 46.021874,58.3755066 C45.9162355,58.3945461 45.8109251,58.4032308 45.7065988,58.4032308 L45.7065988,58.4032308 Z" id="Fill-34" fill="#000000"></path>
                    <path d="M85.7158969,21.899371 C88.017692,21.1877194 90.5266912,20.7577215 92.8033212,21.5495591 C95.4613504,22.4747062 97.3794585,24.9618115 98.3252764,27.664417 C99.2714211,30.3673565 99.3799254,33.2921443 99.4044369,36.1624723 C99.4622841,42.8656956 99.0825189,49.7326322 96.5542374,55.917987 C96.2450654,49.6718244 93.3402869,43.9528854 89.0439077,39.5005526 C88.2882992,38.7177358 87.4787654,37.9786873 86.8529046,37.0842783 C85.8178648,35.6055131 85.3485509,33.7963143 85.0008141,32.0131761 C84.4412978,29.142514 84.159252,26.0854191 85.1880822,23.3540803 C85.4158759,22.7500118 85.117489,21.687546 85.7158969,21.899371" id="Fill-35" fill="#000000"></path>
                    <path d="M84.0729909,23.3078017 L84.0723347,23.3094719 L84.0729909,23.3078017 Z M87.6512392,24.0814056 C87.6184323,24.2644518 87.5705342,24.4568507 87.4967187,24.6509197 C86.565987,27.1096841 86.9534365,30.015375 87.3956734,32.2717197 C87.6971688,33.812581 88.0947884,35.4058844 88.9474397,36.6190663 C89.3430909,37.1822339 89.8696416,37.7106628 90.4263746,38.2694881 C90.6055003,38.449528 90.784626,38.6288999 90.9611271,38.811278 C93.8779883,41.8215191 96.074082,45.2663278 97.4375367,48.899527 C98.1520709,44.7966874 98.2537723,40.6076691 98.2209654,36.8014444 C98.1980006,34.1512832 98.1035167,31.3598291 97.2449602,28.9187681 C96.3808265,26.4603378 94.7335922,24.6008158 92.8376816,23.944121 C91.4660252,23.4691362 89.8046839,23.5108895 87.6512392,24.0814056 Z M97.1947656,58.4032308 C97.0901116,58.4032308 96.9848015,58.3945461 96.8788352,58.3755067 C96.0347137,58.2258631 95.4058055,57.5006929 95.3618443,56.6295535 C95.0931558,51.2210068 92.6024561,45.8238169 88.34937,41.4340491 C88.1843513,41.2640299 88.0183484,41.097017 87.8513613,40.930004 C87.2076899,40.2843321 86.5426941,39.6176164 85.9639804,38.7925726 C84.7041956,37.0008579 84.1618976,34.8600861 83.797741,33.0022343 C83.2626605,30.2699027 82.8099253,26.7125273 84.0470734,23.3779472 C84.0572436,23.297781 84.0572436,23.2122703 84.0608523,23.1321041 C84.0867698,22.5973287 84.1333556,21.6029337 85.0302961,20.9843179 C85.3583651,20.7588504 85.7395813,20.6392691 86.1345763,20.6319206 C88.2132213,20.0199852 91.1638737,19.4174025 94.0197141,20.4081232 C97.0084225,21.4432694 99.4433504,24.086416 100.698542,27.6604927 C101.750659,30.6493561 101.863843,33.798886 101.889433,36.7680418 C101.944876,43.1462656 101.630914,50.5686543 98.8866173,57.255518 C98.5979166,57.9596445 97.924391,58.4032308 97.1947656,58.4032308 L97.1947656,58.4032308 Z" id="Fill-36" fill="#000000"></path>
                    <path d="M109.35073,19.2271186 C106.612912,19.7884817 103.763779,18.7505343 101.449026,17.1785828 C99.1346095,15.6066312 97.2193811,13.5233057 95.1296131,11.6605397 C89.6068949,6.73763605 82.6491848,3.2988654 75.2969948,2.60847672 C67.9448048,1.91808803 60.234119,4.13280359 54.7911039,9.14487684 C54.3075046,9.59004919 53.8282771,10.0946679 53.5504933,10.6783233 C52.858388,11.3102789 52.2015942,11.9790507 51.591546,12.6799101 C48.0677949,16.7263174 46.921012,21.4968897 44.7343896,26.4035807 C49.9218166,24.1148949 55.9230897,27.8066505 59.2501053,32.4130697 C62.5767846,37.0191511 64.4563652,42.6337945 68.2726973,46.839964 C75.2438594,54.5240846 88.0050982,55.4802932 96.6506979,49.765334 C103.50281,45.2359249 107.554552,37.1995169 108.109783,28.9540332 C108.853006,25.7966196 109.103213,22.4061491 109.35073,19.2271186" id="Fill-37" fill="#000000"></path>
                    <path d="M48.7327706,23.1975079 C53.6877412,23.1975079 58.5035517,26.6792551 61.4013742,30.6910461 C62.88642,32.7477516 64.0860869,34.9746113 65.2460899,37.1285478 C66.7899593,39.9938235 68.2481143,42.7007612 70.2874472,44.9488902 C76.4676309,51.760461 88.1046353,52.9343226 96.2293618,47.5673747 C102.329209,43.5353272 106.295942,36.3010716 106.840481,28.215032 C106.847204,28.1120617 106.862666,28.009429 106.886868,27.9084843 C107.43376,25.5843936 107.702332,23.1050034 107.909391,20.6455321 C105.651234,20.5310831 103.27106,19.6749103 101.005508,18.1360948 C99.265672,16.9541306 97.7658363,15.5331403 96.3157485,14.159415 C95.7137302,13.5895333 95.1117119,13.0189765 94.4945675,12.4686761 C88.9802677,7.55344711 82.3214273,4.50653855 75.7442678,3.88871665 C68.6487876,3.2286938 61.5284334,5.4822245 56.693127,9.93358067 C56.4185044,10.1864488 56.0353102,10.560518 55.8790073,10.8893478 C55.7741331,11.1098055 55.6272419,11.3079812 55.4474095,11.4723961 C54.8020297,12.0608461 54.1942971,12.6817065 53.64001,13.3180968 C51.2863906,16.0219961 50.0463874,19.1904434 48.7334429,22.5449124 C48.6484007,22.7623317 48.5633585,22.9807638 48.4766355,23.200884 C48.5616778,23.1988584 48.6477284,23.1975079 48.7327706,23.1975079 Z M84.7684923,54.675365 C78.234022,54.675365 71.7879552,52.2081287 67.5092889,47.491413 C65.1600392,44.9023003 63.5230603,41.8638319 61.9401991,38.9246202 C60.7875912,36.784188 59.6981766,34.7629314 58.3590136,32.9077776 C55.4238801,28.843995 50.2796653,25.689052 46.1267136,27.5212484 C45.4144429,27.8345483 44.584861,27.6762103 44.0372965,27.1232091 C43.4904044,26.569195 43.3384712,25.7339538 43.6554468,25.0216018 C44.2288937,23.7349792 44.7404916,22.4284378 45.2352828,21.1637598 C46.6073871,17.656692 48.0265504,14.0304489 50.810423,10.8333049 C51.3889118,10.1688932 52.0158042,9.52068658 52.6766462,8.90218946 C53.1038742,8.16552968 53.679674,7.58653265 54.1529525,7.15101885 C59.7576726,1.99068674 67.9587018,-0.631849071 76.0938485,0.129793667 C83.460926,0.821214025 90.8817852,4.20066607 96.9890276,9.64458856 C97.6350796,10.2205471 98.2649972,10.8170997 98.8942425,11.4129772 C100.297944,12.7421383 101.623661,13.9980385 103.11106,15.0081605 C104.415601,15.8953932 106.99107,17.3028793 109.579648,16.7704721 C110.158137,16.6502838 110.758474,16.8126731 111.198812,17.2049731 C111.64251,17.5979483 111.874443,18.1759325 111.830746,18.7664082 L111.810578,18.9966566 C111.565199,22.170168 111.309736,25.4500258 110.57965,28.6252253 C109.916119,37.8186177 105.331234,46.0704226 98.2952494,50.7209672 C94.2653232,53.3843536 89.4935464,54.6746898 84.7684923,54.675365 L84.7684923,54.675365 Z" id="Fill-38" fill="#000000"></path>
                </g>
            </g>
        </g>
    </g>
</svg>